G75*
%MOIN*%
%OFA0B0*%
%FSLAX24Y24*%
%IPPOS*%
%LPD*%
%AMOC8*
5,1,8,0,0,1.08239X$1,22.5*
%
%ADD10C,0.0480*%
%ADD11R,0.1063X0.0630*%
%ADD12R,0.0591X0.0512*%
%ADD13C,0.0600*%
%ADD14C,0.0320*%
D10*
X007520Y006510D02*
X008000Y006510D01*
X008000Y007510D02*
X007520Y007510D01*
X007520Y008510D02*
X008000Y008510D01*
X008000Y009510D02*
X007520Y009510D01*
X007520Y010510D02*
X008000Y010510D01*
X008000Y011510D02*
X007520Y011510D01*
X007520Y012510D02*
X008000Y012510D01*
X008000Y013510D02*
X007520Y013510D01*
X007520Y014510D02*
X008000Y014510D01*
X008000Y015510D02*
X007520Y015510D01*
X007520Y016510D02*
X008000Y016510D01*
X008000Y017510D02*
X007520Y017510D01*
X007520Y018510D02*
X008000Y018510D01*
X008000Y019510D02*
X007520Y019510D01*
X010520Y019510D02*
X011000Y019510D01*
X011000Y018510D02*
X010520Y018510D01*
X010520Y017510D02*
X011000Y017510D01*
X011000Y016510D02*
X010520Y016510D01*
X010520Y015510D02*
X011000Y015510D01*
X011000Y014510D02*
X010520Y014510D01*
X010520Y013510D02*
X011000Y013510D01*
X011000Y012510D02*
X010520Y012510D01*
X010520Y011510D02*
X011000Y011510D01*
X011000Y010510D02*
X010520Y010510D01*
X010520Y009510D02*
X011000Y009510D01*
X011000Y008510D02*
X010520Y008510D01*
X010520Y007510D02*
X011000Y007510D01*
X011000Y006510D02*
X010520Y006510D01*
D11*
X004260Y009959D03*
X004260Y011061D03*
D12*
X009320Y009264D03*
X009320Y008516D03*
X013010Y008504D03*
X013010Y007756D03*
X013010Y006754D03*
X013010Y006006D03*
D13*
X013010Y002560D02*
X013010Y001960D01*
X012010Y001960D02*
X012010Y002560D01*
X011010Y002560D02*
X011010Y001960D01*
X010010Y001960D02*
X010010Y002560D01*
X009010Y002560D02*
X009010Y001960D01*
X008010Y001960D02*
X008010Y002560D01*
X007010Y002560D02*
X007010Y001960D01*
X006010Y001960D02*
X006010Y002560D01*
X004560Y012510D02*
X003960Y012510D01*
X003960Y013510D02*
X004560Y013510D01*
X004560Y014510D02*
X003960Y014510D01*
X003960Y015510D02*
X004560Y015510D01*
X004560Y016510D02*
X003960Y016510D01*
X003960Y017510D02*
X004560Y017510D01*
X004560Y018510D02*
X003960Y018510D01*
X003960Y019510D02*
X004560Y019510D01*
X004510Y022710D02*
X004510Y023310D01*
X005510Y023310D02*
X005510Y022710D01*
X006510Y022710D02*
X006510Y023310D01*
X007510Y023310D02*
X007510Y022710D01*
X008510Y022710D02*
X008510Y023310D01*
X009510Y023310D02*
X009510Y022710D01*
X010510Y022710D02*
X010510Y023310D01*
X011510Y023310D02*
X011510Y022710D01*
X012510Y022710D02*
X012510Y023310D01*
X013510Y023310D02*
X013510Y022710D01*
X013960Y019510D02*
X014560Y019510D01*
X014560Y018510D02*
X013960Y018510D01*
X013960Y017510D02*
X014560Y017510D01*
X014560Y016510D02*
X013960Y016510D01*
X013960Y015510D02*
X014560Y015510D01*
X014560Y014510D02*
X013960Y014510D01*
X013960Y013510D02*
X014560Y013510D01*
X014560Y012510D02*
X013960Y012510D01*
D14*
X000707Y000733D02*
X000718Y000718D01*
X000733Y000707D01*
X000733Y000707D01*
X000751Y000701D01*
X000760Y000700D01*
X017760Y000700D01*
X017769Y000701D01*
X017787Y000707D01*
X017802Y000718D01*
X017813Y000733D01*
X017819Y000751D01*
X017820Y000760D01*
X017820Y001228D01*
X017579Y000988D01*
X017244Y000849D01*
X016882Y000849D01*
X016547Y000988D01*
X016291Y001244D01*
X016152Y001579D01*
X016152Y001941D01*
X016291Y002276D01*
X016547Y002532D01*
X016882Y002671D01*
X017244Y002671D01*
X017579Y002532D01*
X017820Y002292D01*
X017820Y004641D01*
X015167Y001988D01*
X015032Y001853D01*
X014855Y001780D01*
X013607Y001780D01*
X013536Y001609D01*
X013361Y001434D01*
X013133Y001340D01*
X012887Y001340D01*
X012659Y001434D01*
X012510Y001583D01*
X012361Y001434D01*
X012133Y001340D01*
X011887Y001340D01*
X011659Y001434D01*
X011510Y001583D01*
X011361Y001434D01*
X011133Y001340D01*
X010887Y001340D01*
X010659Y001434D01*
X010510Y001583D01*
X010361Y001434D01*
X010133Y001340D01*
X009887Y001340D01*
X009659Y001434D01*
X009510Y001583D01*
X009361Y001434D01*
X009133Y001340D01*
X008887Y001340D01*
X008659Y001434D01*
X008510Y001583D01*
X008361Y001434D01*
X008133Y001340D01*
X007887Y001340D01*
X007659Y001434D01*
X007484Y001609D01*
X007471Y001642D01*
X007437Y001595D01*
X007375Y001533D01*
X007304Y001481D01*
X007225Y001441D01*
X007141Y001414D01*
X007054Y001400D01*
X007010Y001400D01*
X007010Y002260D01*
X007010Y002260D01*
X007010Y003120D01*
X007054Y003120D01*
X007141Y003106D01*
X007225Y003079D01*
X007304Y003039D01*
X007375Y002987D01*
X007437Y002925D01*
X007471Y002878D01*
X007484Y002911D01*
X007530Y002957D01*
X007530Y003061D01*
X005103Y005488D01*
X005030Y005665D01*
X005030Y007855D01*
X005103Y008032D01*
X005238Y008167D01*
X005488Y008417D01*
X005988Y008917D01*
X006165Y008990D01*
X007215Y008990D01*
X007264Y009010D01*
X007203Y009035D01*
X007045Y009193D01*
X006960Y009399D01*
X006960Y009621D01*
X007045Y009827D01*
X007203Y009985D01*
X007342Y010042D01*
X007328Y010047D01*
X007258Y010082D01*
X007194Y010129D01*
X007139Y010184D01*
X007092Y010248D01*
X007057Y010318D01*
X007032Y010393D01*
X007020Y010471D01*
X007020Y010510D01*
X007760Y010510D01*
X006010Y010510D01*
X005510Y010010D01*
X004311Y010010D01*
X004260Y009959D01*
X005051Y009959D01*
X005051Y010299D01*
X005042Y010350D01*
X005022Y010397D01*
X004993Y010440D01*
X004962Y010471D01*
X004973Y010475D01*
X005028Y010530D01*
X005105Y010530D01*
X005282Y010603D01*
X005709Y011030D01*
X007215Y011030D01*
X007342Y010978D01*
X007328Y010973D01*
X007258Y010938D01*
X007194Y010891D01*
X007139Y010836D01*
X007092Y010772D01*
X007057Y010702D01*
X007032Y010627D01*
X007020Y010549D01*
X007020Y010510D01*
X007760Y010510D01*
X008500Y010510D01*
X008500Y010549D01*
X008488Y010627D01*
X008463Y010702D01*
X008428Y010772D01*
X008381Y010836D01*
X008326Y010891D01*
X008262Y010938D01*
X008192Y010973D01*
X008178Y010978D01*
X008317Y011035D01*
X008475Y011193D01*
X008560Y011399D01*
X008560Y011621D01*
X008475Y011827D01*
X008317Y011985D01*
X008256Y012010D01*
X008317Y012035D01*
X008475Y012193D01*
X008560Y012399D01*
X008560Y012621D01*
X008475Y012827D01*
X008317Y012985D01*
X008256Y013010D01*
X008317Y013035D01*
X008475Y013193D01*
X008560Y013399D01*
X008560Y013621D01*
X008475Y013827D01*
X008317Y013985D01*
X008256Y014010D01*
X008317Y014035D01*
X008475Y014193D01*
X008560Y014399D01*
X008560Y014621D01*
X008475Y014827D01*
X008317Y014985D01*
X008256Y015010D01*
X008317Y015035D01*
X008475Y015193D01*
X008560Y015399D01*
X008560Y015621D01*
X008475Y015827D01*
X008317Y015985D01*
X008256Y016010D01*
X008317Y016035D01*
X008475Y016193D01*
X008560Y016399D01*
X008560Y016621D01*
X008475Y016827D01*
X008317Y016985D01*
X008256Y017010D01*
X008317Y017035D01*
X008475Y017193D01*
X008560Y017399D01*
X008560Y017621D01*
X008475Y017827D01*
X008317Y017985D01*
X008256Y018010D01*
X008317Y018035D01*
X008475Y018193D01*
X008560Y018399D01*
X008560Y018621D01*
X008475Y018827D01*
X008317Y018985D01*
X008256Y019010D01*
X008317Y019035D01*
X008475Y019193D01*
X008560Y019399D01*
X008560Y019621D01*
X008475Y019827D01*
X008317Y019985D01*
X008111Y020070D01*
X007409Y020070D01*
X007215Y019990D01*
X004957Y019990D01*
X004911Y020036D01*
X004683Y020130D01*
X003837Y020130D01*
X003609Y020036D01*
X003434Y019861D01*
X003340Y019633D01*
X003340Y019387D01*
X003434Y019159D01*
X003583Y019010D01*
X003434Y018861D01*
X003340Y018633D01*
X003340Y018387D01*
X003434Y018159D01*
X003583Y018010D01*
X003434Y017861D01*
X003340Y017633D01*
X003340Y017387D01*
X003434Y017159D01*
X003583Y017010D01*
X003434Y016861D01*
X003340Y016633D01*
X003340Y016387D01*
X003434Y016159D01*
X003583Y016010D01*
X003434Y015861D01*
X003340Y015633D01*
X003340Y015387D01*
X003434Y015159D01*
X003583Y015010D01*
X003434Y014861D01*
X003340Y014633D01*
X003340Y014387D01*
X003434Y014159D01*
X003583Y014010D01*
X003434Y013861D01*
X003340Y013633D01*
X003340Y013387D01*
X003434Y013159D01*
X003583Y013010D01*
X003434Y012861D01*
X003340Y012633D01*
X003340Y012387D01*
X003434Y012159D01*
X003609Y011984D01*
X003837Y011890D01*
X004683Y011890D01*
X004911Y011984D01*
X004957Y012030D01*
X007215Y012030D01*
X007264Y012010D01*
X007215Y011990D01*
X005415Y011990D01*
X005238Y011917D01*
X004970Y011649D01*
X004855Y011696D01*
X003665Y011696D01*
X003547Y011647D01*
X003457Y011557D01*
X003451Y011541D01*
X003158Y011541D01*
X002740Y011959D01*
X002740Y020561D01*
X004303Y022125D01*
X004387Y022090D01*
X004633Y022090D01*
X004861Y022184D01*
X005010Y022333D01*
X005159Y022184D01*
X005387Y022090D01*
X005633Y022090D01*
X005861Y022184D01*
X006010Y022333D01*
X006159Y022184D01*
X006387Y022090D01*
X006633Y022090D01*
X006861Y022184D01*
X007010Y022333D01*
X007159Y022184D01*
X007387Y022090D01*
X007633Y022090D01*
X007861Y022184D01*
X008010Y022333D01*
X008159Y022184D01*
X008387Y022090D01*
X008633Y022090D01*
X008861Y022184D01*
X009010Y022333D01*
X009159Y022184D01*
X009387Y022090D01*
X009633Y022090D01*
X009861Y022184D01*
X010036Y022359D01*
X010049Y022392D01*
X010083Y022345D01*
X010145Y022283D01*
X010216Y022231D01*
X010295Y022191D01*
X010379Y022164D01*
X010466Y022150D01*
X010510Y022150D01*
X010554Y022150D01*
X010641Y022164D01*
X010725Y022191D01*
X010804Y022231D01*
X010875Y022283D01*
X010937Y022345D01*
X010989Y022416D01*
X011010Y022458D01*
X011031Y022416D01*
X011083Y022345D01*
X011145Y022283D01*
X011216Y022231D01*
X011295Y022191D01*
X011379Y022164D01*
X011466Y022150D01*
X011510Y022150D01*
X011554Y022150D01*
X011641Y022164D01*
X011725Y022191D01*
X011804Y022231D01*
X011875Y022283D01*
X011937Y022345D01*
X011989Y022416D01*
X012010Y022458D01*
X012031Y022416D01*
X012083Y022345D01*
X012145Y022283D01*
X012216Y022231D01*
X012295Y022191D01*
X012379Y022164D01*
X012466Y022150D01*
X012510Y022150D01*
X012554Y022150D01*
X012641Y022164D01*
X012725Y022191D01*
X012804Y022231D01*
X012875Y022283D01*
X012937Y022345D01*
X012989Y022416D01*
X013010Y022458D01*
X013031Y022416D01*
X013083Y022345D01*
X013145Y022283D01*
X013216Y022231D01*
X013295Y022191D01*
X013379Y022164D01*
X013466Y022150D01*
X013510Y022150D01*
X013554Y022150D01*
X013641Y022164D01*
X013725Y022191D01*
X013804Y022231D01*
X013875Y022283D01*
X013937Y022345D01*
X013989Y022416D01*
X014029Y022495D01*
X014056Y022579D01*
X014070Y022666D01*
X014070Y023010D01*
X014070Y023354D01*
X014056Y023441D01*
X014029Y023525D01*
X013989Y023604D01*
X013937Y023675D01*
X013875Y023737D01*
X013804Y023789D01*
X013725Y023829D01*
X013641Y023856D01*
X013554Y023870D01*
X013510Y023870D01*
X013510Y023010D01*
X013510Y023010D01*
X014070Y023010D01*
X013510Y023010D01*
X013510Y023010D01*
X013510Y023010D01*
X012510Y023010D01*
X012510Y023010D01*
X012510Y023010D01*
X012510Y023870D01*
X012554Y023870D01*
X012641Y023856D01*
X012725Y023829D01*
X012804Y023789D01*
X012875Y023737D01*
X012937Y023675D01*
X012989Y023604D01*
X013010Y023562D01*
X013031Y023604D01*
X013083Y023675D01*
X013145Y023737D01*
X013216Y023789D01*
X013295Y023829D01*
X013379Y023856D01*
X013466Y023870D01*
X013510Y023870D01*
X013510Y023010D01*
X013510Y022150D01*
X013510Y023010D01*
X013510Y023010D01*
X013070Y023010D01*
X012510Y023010D01*
X012510Y023870D01*
X012466Y023870D01*
X012379Y023856D01*
X012295Y023829D01*
X012216Y023789D01*
X012145Y023737D01*
X012083Y023675D01*
X012031Y023604D01*
X012010Y023562D01*
X011989Y023604D01*
X011937Y023675D01*
X011875Y023737D01*
X011804Y023789D01*
X011725Y023829D01*
X011641Y023856D01*
X011554Y023870D01*
X011510Y023870D01*
X011510Y023010D01*
X011510Y023010D01*
X012510Y023010D01*
X012510Y022150D01*
X012510Y023010D01*
X012510Y023010D01*
X012510Y023010D01*
X011950Y023010D01*
X011510Y023010D01*
X011510Y023010D01*
X011510Y023010D01*
X010510Y023010D01*
X010510Y023010D01*
X010510Y023010D01*
X010510Y023870D01*
X010554Y023870D01*
X010641Y023856D01*
X010725Y023829D01*
X010804Y023789D01*
X010875Y023737D01*
X010937Y023675D01*
X010989Y023604D01*
X011010Y023562D01*
X011031Y023604D01*
X011083Y023675D01*
X011145Y023737D01*
X011216Y023789D01*
X011295Y023829D01*
X011379Y023856D01*
X011466Y023870D01*
X011510Y023870D01*
X011510Y023010D01*
X011510Y022150D01*
X011510Y023010D01*
X011510Y023010D01*
X010950Y023010D01*
X010510Y023010D01*
X010510Y023870D01*
X010466Y023870D01*
X010379Y023856D01*
X010295Y023829D01*
X010216Y023789D01*
X010145Y023737D01*
X010083Y023675D01*
X010049Y023628D01*
X010036Y023661D01*
X009861Y023836D01*
X009633Y023930D01*
X009387Y023930D01*
X009159Y023836D01*
X009010Y023687D01*
X008861Y023836D01*
X008633Y023930D01*
X008387Y023930D01*
X008159Y023836D01*
X008010Y023687D01*
X007861Y023836D01*
X007633Y023930D01*
X007387Y023930D01*
X007159Y023836D01*
X007010Y023687D01*
X006861Y023836D01*
X006633Y023930D01*
X006387Y023930D01*
X006159Y023836D01*
X006010Y023687D01*
X005861Y023836D01*
X005633Y023930D01*
X005387Y023930D01*
X005159Y023836D01*
X005010Y023687D01*
X004861Y023836D01*
X004633Y023930D01*
X004387Y023930D01*
X004159Y023836D01*
X003984Y023661D01*
X003890Y023433D01*
X003890Y023069D01*
X001853Y021032D01*
X001780Y020855D01*
X001780Y005915D01*
X001853Y005738D01*
X001988Y005603D01*
X005390Y002201D01*
X005390Y001837D01*
X005484Y001609D01*
X005659Y001434D01*
X005887Y001340D01*
X006133Y001340D01*
X006361Y001434D01*
X006536Y001609D01*
X006549Y001642D01*
X006583Y001595D01*
X006645Y001533D01*
X006716Y001481D01*
X006795Y001441D01*
X006879Y001414D01*
X006966Y001400D01*
X007010Y001400D01*
X007010Y002260D01*
X007010Y003120D01*
X006966Y003120D01*
X006879Y003106D01*
X006795Y003079D01*
X006716Y003039D01*
X006645Y002987D01*
X006583Y002925D01*
X006549Y002878D01*
X006536Y002911D01*
X006361Y003086D01*
X006133Y003180D01*
X005887Y003180D01*
X005803Y003145D01*
X002740Y006209D01*
X002740Y010632D01*
X002863Y010581D01*
X003451Y010581D01*
X003457Y010565D01*
X003547Y010475D01*
X003558Y010471D01*
X003527Y010440D01*
X003498Y010397D01*
X003478Y010350D01*
X003469Y010299D01*
X003469Y009959D01*
X004260Y009959D01*
X004260Y009959D01*
X004260Y009959D01*
X005051Y009959D01*
X005051Y009618D01*
X005042Y009568D01*
X005022Y009521D01*
X004993Y009478D01*
X004957Y009442D01*
X004915Y009413D01*
X004867Y009394D01*
X004817Y009384D01*
X004260Y009384D01*
X004260Y009959D01*
X003469Y009959D01*
X003469Y009618D01*
X003478Y009568D01*
X003498Y009521D01*
X003527Y009478D01*
X003563Y009442D01*
X003605Y009413D01*
X003653Y009394D01*
X003703Y009384D01*
X004260Y009384D01*
X004260Y009959D01*
X004260Y009959D01*
X004260Y009815D02*
X004260Y009815D01*
X004260Y009497D02*
X004260Y009497D01*
X005006Y009497D02*
X006960Y009497D01*
X007060Y009178D02*
X002740Y009178D01*
X002740Y008860D02*
X005931Y008860D01*
X006260Y008510D02*
X005760Y008010D01*
X005510Y007760D01*
X005510Y005760D01*
X008010Y003260D01*
X008010Y002260D01*
X008510Y002937D02*
X008490Y002957D01*
X008490Y003351D01*
X008530Y003311D01*
X008530Y002957D01*
X008510Y002937D01*
X008490Y003127D02*
X008530Y003127D01*
X009010Y003510D02*
X006510Y006010D01*
X006510Y007260D01*
X006760Y007510D01*
X007760Y007510D01*
X007264Y007010D02*
X007203Y006985D01*
X007045Y006827D01*
X006990Y006694D01*
X006990Y007030D01*
X007215Y007030D01*
X007264Y007010D01*
X007167Y006949D02*
X006990Y006949D01*
X006990Y006326D02*
X007045Y006193D01*
X007203Y006035D01*
X007409Y005950D01*
X008111Y005950D01*
X008317Y006035D01*
X008475Y006193D01*
X008560Y006399D01*
X008560Y006621D01*
X008475Y006827D01*
X008317Y006985D01*
X008256Y007010D01*
X008317Y007035D01*
X008475Y007193D01*
X008560Y007399D01*
X008560Y007621D01*
X008475Y007827D01*
X008317Y007985D01*
X008256Y008010D01*
X008317Y008035D01*
X008475Y008193D01*
X008560Y008399D01*
X008560Y008621D01*
X008475Y008827D01*
X008317Y008985D01*
X008256Y009010D01*
X008317Y009035D01*
X008475Y009193D01*
X008560Y009399D01*
X008560Y009621D01*
X008475Y009827D01*
X008317Y009985D01*
X008178Y010042D01*
X008192Y010047D01*
X008262Y010082D01*
X008326Y010129D01*
X008381Y010184D01*
X008428Y010248D01*
X008463Y010318D01*
X008488Y010393D01*
X008500Y010471D01*
X008500Y010510D01*
X007760Y010510D01*
X007760Y010510D01*
X007760Y010510D01*
X008331Y010134D02*
X010105Y010134D01*
X010045Y010193D02*
X010203Y010035D01*
X010264Y010010D01*
X010203Y009985D01*
X010045Y009827D01*
X009960Y009621D01*
X009960Y009399D01*
X010045Y009193D01*
X010203Y009035D01*
X010264Y009010D01*
X010230Y008996D01*
X009875Y008996D01*
X009875Y009264D01*
X009875Y009546D01*
X009865Y009596D01*
X009846Y009643D01*
X009817Y009686D01*
X009781Y009722D01*
X009738Y009750D01*
X009691Y009770D01*
X009641Y009780D01*
X009320Y009780D01*
X008999Y009780D01*
X008949Y009770D01*
X008902Y009750D01*
X008859Y009722D01*
X008823Y009686D01*
X008794Y009643D01*
X008775Y009596D01*
X008765Y009546D01*
X008765Y009264D01*
X008765Y008983D01*
X008768Y008967D01*
X008753Y008953D01*
X008705Y008836D01*
X008705Y008196D01*
X008753Y008079D01*
X008843Y007989D01*
X008961Y007940D01*
X009679Y007940D01*
X009797Y007989D01*
X009844Y008036D01*
X010202Y008036D01*
X010203Y008035D01*
X010264Y008010D01*
X010203Y007985D01*
X010045Y007827D01*
X009960Y007621D01*
X009960Y007399D01*
X010045Y007193D01*
X010203Y007035D01*
X010264Y007010D01*
X010203Y006985D01*
X010045Y006827D01*
X009960Y006621D01*
X009960Y006399D01*
X010045Y006193D01*
X010203Y006035D01*
X010409Y005950D01*
X010641Y005950D01*
X010992Y005599D01*
X011169Y005526D01*
X012486Y005526D01*
X012533Y005479D01*
X012651Y005430D01*
X013369Y005430D01*
X013487Y005479D01*
X013577Y005569D01*
X013625Y005686D01*
X013625Y006326D01*
X013577Y006443D01*
X013562Y006457D01*
X013565Y006473D01*
X013565Y006754D01*
X013565Y007036D01*
X013555Y007086D01*
X013536Y007133D01*
X013507Y007176D01*
X013471Y007212D01*
X013428Y007240D01*
X013393Y007255D01*
X013428Y007270D01*
X013471Y007298D01*
X013507Y007334D01*
X013536Y007377D01*
X013555Y007424D01*
X013565Y007474D01*
X013565Y007756D01*
X013565Y008037D01*
X013562Y008053D01*
X013577Y008067D01*
X013625Y008184D01*
X013625Y008824D01*
X013577Y008941D01*
X013488Y009030D01*
X014561Y009030D01*
X014780Y008811D01*
X014780Y005959D01*
X014061Y005240D01*
X011915Y005240D01*
X011738Y005167D01*
X010603Y004032D01*
X010530Y003855D01*
X010530Y002957D01*
X010510Y002937D01*
X010361Y003086D01*
X010133Y003180D01*
X009887Y003180D01*
X009659Y003086D01*
X009510Y002937D01*
X009490Y002957D01*
X009490Y003605D01*
X009417Y003782D01*
X006990Y006209D01*
X006990Y006326D01*
X006990Y006312D02*
X006996Y006312D01*
X007206Y005993D02*
X007305Y005993D01*
X007524Y005675D02*
X010917Y005675D01*
X011264Y006006D02*
X010760Y006510D01*
X011256Y007010D02*
X011305Y007030D01*
X011855Y007030D01*
X012032Y007103D01*
X012167Y007238D01*
X012455Y007526D01*
X012455Y007474D01*
X012465Y007424D01*
X012484Y007377D01*
X012513Y007334D01*
X012549Y007298D01*
X012592Y007270D01*
X012627Y007255D01*
X012592Y007240D01*
X012549Y007212D01*
X012513Y007176D01*
X012484Y007133D01*
X012465Y007086D01*
X012455Y007036D01*
X012455Y006754D01*
X012455Y006486D01*
X011560Y006486D01*
X011560Y006621D01*
X011475Y006827D01*
X011317Y006985D01*
X011256Y007010D01*
X011353Y006949D02*
X012455Y006949D01*
X012455Y006754D02*
X013010Y006754D01*
X013010Y006754D01*
X013565Y006754D01*
X013010Y006754D01*
X012455Y006754D01*
X012455Y006630D02*
X011556Y006630D01*
X011264Y006006D02*
X013010Y006006D01*
X013010Y006754D02*
X013010Y006754D01*
X013010Y007756D01*
X013565Y007756D01*
X013010Y007756D01*
X013010Y007756D01*
X013010Y007240D01*
X013010Y006754D01*
X013010Y006754D01*
X013010Y006949D02*
X013010Y006949D01*
X013010Y007267D02*
X013010Y007267D01*
X013010Y007586D02*
X013010Y007586D01*
X013010Y007756D02*
X013010Y007756D01*
X013422Y007267D02*
X014780Y007267D01*
X014780Y007586D02*
X013565Y007586D01*
X013565Y007904D02*
X014780Y007904D01*
X014780Y008223D02*
X013625Y008223D01*
X013625Y008541D02*
X014780Y008541D01*
X014732Y008860D02*
X013610Y008860D01*
X013010Y008504D02*
X012754Y008504D01*
X011760Y007510D01*
X010760Y007510D01*
X011256Y008010D02*
X011317Y008035D01*
X011475Y008193D01*
X011560Y008399D01*
X011560Y008621D01*
X011475Y008827D01*
X011317Y008985D01*
X011256Y009010D01*
X011305Y009030D01*
X012532Y009030D01*
X012443Y008941D01*
X012395Y008824D01*
X012395Y008824D01*
X011561Y007990D01*
X011305Y007990D01*
X011256Y008010D01*
X011487Y008223D02*
X011794Y008223D01*
X011560Y008541D02*
X012112Y008541D01*
X012410Y008860D02*
X011442Y008860D01*
X010760Y008510D02*
X010754Y008516D01*
X009320Y008516D01*
X008705Y008541D02*
X008560Y008541D01*
X008442Y008860D02*
X008715Y008860D01*
X008765Y009178D02*
X008460Y009178D01*
X008560Y009497D02*
X008765Y009497D01*
X008765Y009264D02*
X009320Y009264D01*
X009320Y009264D01*
X009875Y009264D01*
X009320Y009264D01*
X008765Y009264D01*
X008480Y009815D02*
X010040Y009815D01*
X010045Y010193D02*
X009960Y010399D01*
X009960Y010621D01*
X010045Y010827D01*
X010203Y010985D01*
X010264Y011010D01*
X010203Y011035D01*
X010045Y011193D01*
X009960Y011399D01*
X009960Y011621D01*
X010045Y011827D01*
X010203Y011985D01*
X010264Y012010D01*
X010203Y012035D01*
X010045Y012193D01*
X009960Y012399D01*
X009960Y012621D01*
X010045Y012827D01*
X010203Y012985D01*
X010264Y013010D01*
X010203Y013035D01*
X010045Y013193D01*
X009960Y013399D01*
X009960Y013621D01*
X010045Y013827D01*
X010203Y013985D01*
X010264Y014010D01*
X010203Y014035D01*
X010045Y014193D01*
X009960Y014399D01*
X009960Y014621D01*
X010045Y014827D01*
X010203Y014985D01*
X010264Y015010D01*
X010203Y015035D01*
X010045Y015193D01*
X009960Y015399D01*
X009960Y015621D01*
X010045Y015827D01*
X010203Y015985D01*
X010264Y016010D01*
X010203Y016035D01*
X010045Y016193D01*
X009960Y016399D01*
X009960Y016621D01*
X010045Y016827D01*
X010203Y016985D01*
X010264Y017010D01*
X010203Y017035D01*
X010045Y017193D01*
X009960Y017399D01*
X009960Y017621D01*
X010045Y017827D01*
X010203Y017985D01*
X010264Y018010D01*
X010203Y018035D01*
X010045Y018193D01*
X009960Y018399D01*
X009960Y018621D01*
X010045Y018827D01*
X010203Y018985D01*
X010264Y019010D01*
X010203Y019035D01*
X010045Y019193D01*
X009960Y019399D01*
X009960Y019621D01*
X010045Y019827D01*
X010203Y019985D01*
X010409Y020070D01*
X011111Y020070D01*
X011305Y019990D01*
X013563Y019990D01*
X013609Y020036D01*
X013837Y020130D01*
X014683Y020130D01*
X014911Y020036D01*
X015086Y019861D01*
X015180Y019633D01*
X015180Y019387D01*
X015086Y019159D01*
X014937Y019010D01*
X015086Y018861D01*
X015180Y018633D01*
X015180Y018387D01*
X015086Y018159D01*
X014937Y018010D01*
X015086Y017861D01*
X015180Y017633D01*
X015180Y017387D01*
X015086Y017159D01*
X014937Y017010D01*
X015086Y016861D01*
X015180Y016633D01*
X015180Y016387D01*
X015086Y016159D01*
X014937Y016010D01*
X015086Y015861D01*
X015180Y015633D01*
X015180Y015387D01*
X015086Y015159D01*
X014937Y015010D01*
X015086Y014861D01*
X015180Y014633D01*
X015180Y014387D01*
X015086Y014159D01*
X014937Y014010D01*
X015086Y013861D01*
X015180Y013633D01*
X015180Y013387D01*
X015086Y013159D01*
X014937Y013010D01*
X015086Y012861D01*
X015180Y012633D01*
X015180Y012387D01*
X015086Y012159D01*
X014917Y011990D01*
X016605Y011990D01*
X016782Y011917D01*
X017782Y010917D01*
X017820Y010879D01*
X017820Y022728D01*
X017579Y022488D01*
X017244Y022349D01*
X016882Y022349D01*
X016547Y022488D01*
X016291Y022744D01*
X016152Y023079D01*
X016152Y023441D01*
X016291Y023776D01*
X016547Y024032D01*
X016882Y024171D01*
X017244Y024171D01*
X017579Y024032D01*
X017820Y023792D01*
X017820Y024260D01*
X017819Y024269D01*
X017813Y024287D01*
X017802Y024302D01*
X017787Y024313D01*
X017769Y024319D01*
X017760Y024320D01*
X000760Y024320D01*
X000751Y024319D01*
X000733Y024313D01*
X000718Y024302D01*
X000707Y024287D01*
X000701Y024269D01*
X000700Y024260D01*
X000700Y024172D01*
X000700Y000848D01*
X000700Y000760D01*
X000701Y000751D01*
X000707Y000733D01*
X000700Y000897D02*
X001356Y000897D01*
X001472Y000849D02*
X001835Y000849D01*
X002170Y000988D01*
X002426Y001244D01*
X002565Y001579D01*
X002565Y001941D01*
X002426Y002276D01*
X002170Y002532D01*
X001835Y002671D01*
X001472Y002671D01*
X001138Y002532D01*
X000881Y002276D01*
X000743Y001941D01*
X000743Y001579D01*
X000881Y001244D01*
X001138Y000988D01*
X001472Y000849D01*
X001951Y000897D02*
X016766Y000897D01*
X016319Y001216D02*
X002398Y001216D01*
X002546Y001534D02*
X005559Y001534D01*
X005390Y001853D02*
X002565Y001853D01*
X002470Y002171D02*
X005390Y002171D01*
X005102Y002490D02*
X002213Y002490D01*
X001095Y002490D02*
X000700Y002490D01*
X000700Y002171D02*
X000838Y002171D01*
X000743Y001853D02*
X000700Y001853D01*
X000700Y001534D02*
X000761Y001534D01*
X000700Y001216D02*
X000910Y001216D01*
X000700Y002808D02*
X004783Y002808D01*
X004465Y003127D02*
X000700Y003127D01*
X000700Y003445D02*
X004146Y003445D01*
X003828Y003764D02*
X000700Y003764D01*
X000700Y004082D02*
X003509Y004082D01*
X003191Y004401D02*
X000700Y004401D01*
X000700Y004719D02*
X002872Y004719D01*
X002554Y005038D02*
X000700Y005038D01*
X000700Y005356D02*
X002235Y005356D01*
X001917Y005675D02*
X000700Y005675D01*
X000700Y005993D02*
X001780Y005993D01*
X001780Y006312D02*
X000700Y006312D01*
X000700Y006630D02*
X001780Y006630D01*
X001780Y006949D02*
X000700Y006949D01*
X000700Y007267D02*
X001780Y007267D01*
X001780Y007586D02*
X000700Y007586D01*
X000700Y007904D02*
X001780Y007904D01*
X001780Y008223D02*
X000700Y008223D01*
X000700Y008541D02*
X001780Y008541D01*
X001780Y008860D02*
X000700Y008860D01*
X000700Y009178D02*
X001780Y009178D01*
X001780Y009497D02*
X000700Y009497D01*
X000700Y009815D02*
X001780Y009815D01*
X001780Y010134D02*
X000700Y010134D01*
X000700Y010452D02*
X001780Y010452D01*
X001780Y010771D02*
X000700Y010771D01*
X000700Y011089D02*
X001780Y011089D01*
X001780Y011408D02*
X000700Y011408D01*
X000700Y011726D02*
X001780Y011726D01*
X001780Y012045D02*
X000700Y012045D01*
X000700Y012363D02*
X001780Y012363D01*
X001780Y012682D02*
X000700Y012682D01*
X000700Y013000D02*
X001780Y013000D01*
X001780Y013319D02*
X000700Y013319D01*
X000700Y013637D02*
X001780Y013637D01*
X001780Y013956D02*
X000700Y013956D01*
X000700Y014274D02*
X001780Y014274D01*
X001780Y014593D02*
X000700Y014593D01*
X000700Y014911D02*
X001780Y014911D01*
X001780Y015230D02*
X000700Y015230D01*
X000700Y015548D02*
X001780Y015548D01*
X001780Y015867D02*
X000700Y015867D01*
X000700Y016185D02*
X001780Y016185D01*
X001780Y016504D02*
X000700Y016504D01*
X000700Y016822D02*
X001780Y016822D01*
X001780Y017141D02*
X000700Y017141D01*
X000700Y017459D02*
X001780Y017459D01*
X001780Y017778D02*
X000700Y017778D01*
X000700Y018096D02*
X001780Y018096D01*
X001780Y018415D02*
X000700Y018415D01*
X000700Y018733D02*
X001780Y018733D01*
X001780Y019052D02*
X000700Y019052D01*
X000700Y019370D02*
X001780Y019370D01*
X001780Y019689D02*
X000700Y019689D01*
X000700Y020007D02*
X001780Y020007D01*
X001780Y020326D02*
X000700Y020326D01*
X000700Y020644D02*
X001780Y020644D01*
X001824Y020963D02*
X000700Y020963D01*
X000700Y021281D02*
X002102Y021281D01*
X002421Y021600D02*
X000700Y021600D01*
X000700Y021918D02*
X002739Y021918D01*
X003058Y022237D02*
X000700Y022237D01*
X000700Y022555D02*
X001070Y022555D01*
X001138Y022488D02*
X001472Y022349D01*
X001835Y022349D01*
X002170Y022488D01*
X002426Y022744D01*
X002565Y023079D01*
X002565Y023441D01*
X002426Y023776D01*
X002170Y024032D01*
X001835Y024171D01*
X001472Y024171D01*
X001138Y024032D01*
X000881Y023776D01*
X000743Y023441D01*
X000743Y023079D01*
X000881Y022744D01*
X001138Y022488D01*
X000828Y022874D02*
X000700Y022874D01*
X000700Y023192D02*
X000743Y023192D01*
X000771Y023511D02*
X000700Y023511D01*
X000700Y023829D02*
X000934Y023829D01*
X000700Y024148D02*
X001415Y024148D01*
X001892Y024148D02*
X016825Y024148D01*
X016344Y023829D02*
X013725Y023829D01*
X013510Y023829D02*
X013510Y023829D01*
X013295Y023829D02*
X012725Y023829D01*
X012510Y023829D02*
X012510Y023829D01*
X012295Y023829D02*
X011725Y023829D01*
X011510Y023829D02*
X011510Y023829D01*
X011295Y023829D02*
X010725Y023829D01*
X010510Y023829D02*
X010510Y023829D01*
X010295Y023829D02*
X009868Y023829D01*
X010510Y023511D02*
X010510Y023511D01*
X010510Y023192D02*
X010510Y023192D01*
X010510Y023010D02*
X010510Y022150D01*
X010510Y023010D01*
X010510Y023010D01*
X010510Y022874D02*
X010510Y022874D01*
X010510Y022555D02*
X010510Y022555D01*
X010510Y022237D02*
X010510Y022237D01*
X010209Y022237D02*
X009913Y022237D01*
X009107Y022237D02*
X008913Y022237D01*
X008107Y022237D02*
X007913Y022237D01*
X007107Y022237D02*
X006913Y022237D01*
X006107Y022237D02*
X005913Y022237D01*
X005107Y022237D02*
X004913Y022237D01*
X004510Y023010D02*
X002260Y020760D01*
X002260Y011760D01*
X002959Y011061D01*
X004260Y011061D01*
X004311Y011010D01*
X005010Y011010D01*
X005510Y011510D01*
X007760Y011510D01*
X008326Y012045D02*
X010194Y012045D01*
X010003Y011726D02*
X008517Y011726D01*
X008560Y011408D02*
X009960Y011408D01*
X010149Y011089D02*
X008371Y011089D01*
X008428Y010771D02*
X010022Y010771D01*
X009960Y010452D02*
X008497Y010452D01*
X009320Y009780D02*
X009320Y009264D01*
X009320Y009264D01*
X009320Y009264D01*
X009320Y009780D01*
X009320Y009497D02*
X009320Y009497D01*
X009875Y009497D02*
X009960Y009497D01*
X009875Y009178D02*
X010060Y009178D01*
X010760Y009510D02*
X014760Y009510D01*
X015260Y009010D01*
X015260Y005760D01*
X014260Y004760D01*
X012010Y004760D01*
X011010Y003760D01*
X011010Y002260D01*
X011510Y002937D02*
X011490Y002957D01*
X011490Y003561D01*
X012209Y004280D01*
X014165Y004280D01*
X014355Y004280D01*
X014532Y004353D01*
X015532Y005353D01*
X015667Y005488D01*
X015740Y005665D01*
X015740Y009105D01*
X015667Y009282D01*
X015167Y009782D01*
X015032Y009917D01*
X014855Y009990D01*
X011305Y009990D01*
X011256Y010010D01*
X011305Y010030D01*
X015561Y010030D01*
X016030Y009561D01*
X016030Y005459D01*
X014811Y004240D01*
X012415Y004240D01*
X012238Y004167D01*
X011738Y003667D01*
X011603Y003532D01*
X011530Y003355D01*
X011530Y002957D01*
X011510Y002937D01*
X011490Y003127D02*
X011530Y003127D01*
X011490Y003445D02*
X011567Y003445D01*
X011692Y003764D02*
X011835Y003764D01*
X012011Y004082D02*
X012153Y004082D01*
X012510Y003760D02*
X012010Y003260D01*
X012010Y002260D01*
X012510Y002937D02*
X012490Y002957D01*
X012490Y003061D01*
X012709Y003280D01*
X015101Y003280D01*
X014561Y002740D01*
X013607Y002740D01*
X013536Y002911D01*
X013361Y003086D01*
X013133Y003180D01*
X012887Y003180D01*
X012659Y003086D01*
X012510Y002937D01*
X012555Y003127D02*
X012758Y003127D01*
X013262Y003127D02*
X014948Y003127D01*
X014629Y002808D02*
X013578Y002808D01*
X013010Y002260D02*
X014760Y002260D01*
X017510Y005010D01*
X017510Y010510D01*
X016510Y011510D01*
X010760Y011510D01*
X011256Y012010D02*
X011305Y012030D01*
X013563Y012030D01*
X013603Y011990D01*
X011305Y011990D01*
X011256Y012010D01*
X010760Y012510D02*
X014260Y012510D01*
X013583Y013010D02*
X013563Y013030D01*
X011305Y013030D01*
X011256Y013010D01*
X011305Y012990D01*
X013563Y012990D01*
X013583Y013010D01*
X013573Y013000D02*
X011280Y013000D01*
X010760Y013510D02*
X014260Y013510D01*
X013583Y014010D02*
X013563Y014030D01*
X011305Y014030D01*
X011256Y014010D01*
X011305Y013990D01*
X013563Y013990D01*
X013583Y014010D01*
X014260Y014510D02*
X010760Y014510D01*
X011256Y015010D02*
X011305Y015030D01*
X013563Y015030D01*
X013583Y015010D01*
X013563Y014990D01*
X011305Y014990D01*
X011256Y015010D01*
X010760Y015510D02*
X014260Y015510D01*
X013583Y016010D02*
X013563Y016030D01*
X011305Y016030D01*
X011256Y016010D01*
X011305Y015990D01*
X013563Y015990D01*
X013583Y016010D01*
X014260Y016510D02*
X010760Y016510D01*
X011256Y017010D02*
X011305Y017030D01*
X013563Y017030D01*
X013583Y017010D01*
X013563Y016990D01*
X011305Y016990D01*
X011256Y017010D01*
X010760Y017510D02*
X014260Y017510D01*
X013583Y018010D02*
X013563Y018030D01*
X011305Y018030D01*
X011256Y018010D01*
X011305Y017990D01*
X013563Y017990D01*
X013583Y018010D01*
X014260Y018510D02*
X010760Y018510D01*
X011256Y019010D02*
X011305Y019030D01*
X013563Y019030D01*
X013583Y019010D01*
X013563Y018990D01*
X011305Y018990D01*
X011256Y019010D01*
X010760Y019510D02*
X014260Y019510D01*
X013580Y020007D02*
X011263Y020007D01*
X010257Y020007D02*
X008263Y020007D01*
X008532Y019689D02*
X009988Y019689D01*
X009972Y019370D02*
X008548Y019370D01*
X008333Y019052D02*
X010187Y019052D01*
X010006Y018733D02*
X008514Y018733D01*
X008560Y018415D02*
X009960Y018415D01*
X010142Y018096D02*
X008378Y018096D01*
X008495Y017778D02*
X010025Y017778D01*
X009960Y017459D02*
X008560Y017459D01*
X008422Y017141D02*
X010098Y017141D01*
X010043Y016822D02*
X008477Y016822D01*
X008560Y016504D02*
X009960Y016504D01*
X010053Y016185D02*
X008467Y016185D01*
X008435Y015867D02*
X010085Y015867D01*
X009960Y015548D02*
X008560Y015548D01*
X008490Y015230D02*
X010030Y015230D01*
X010129Y014911D02*
X008391Y014911D01*
X008560Y014593D02*
X009960Y014593D01*
X010012Y014274D02*
X008508Y014274D01*
X008346Y013956D02*
X010174Y013956D01*
X009966Y013637D02*
X008554Y013637D01*
X008527Y013319D02*
X009993Y013319D01*
X010240Y013000D02*
X008280Y013000D01*
X008535Y012682D02*
X009985Y012682D01*
X009975Y012363D02*
X008545Y012363D01*
X007760Y012510D02*
X004260Y012510D01*
X004010Y012510D01*
X004260Y012510D01*
X004937Y013010D02*
X004957Y012990D01*
X007215Y012990D01*
X007264Y013010D01*
X007215Y013030D01*
X004957Y013030D01*
X004937Y013010D01*
X004947Y013000D02*
X007240Y013000D01*
X007760Y013510D02*
X004260Y013510D01*
X004937Y014010D02*
X004957Y014030D01*
X007215Y014030D01*
X007264Y014010D01*
X007215Y013990D01*
X004957Y013990D01*
X004937Y014010D01*
X004260Y014510D02*
X007760Y014510D01*
X007264Y015010D02*
X007215Y014990D01*
X004957Y014990D01*
X004937Y015010D01*
X004957Y015030D01*
X007215Y015030D01*
X007264Y015010D01*
X007760Y015510D02*
X004260Y015510D01*
X004937Y016010D02*
X004957Y016030D01*
X007215Y016030D01*
X007264Y016010D01*
X007215Y015990D01*
X004957Y015990D01*
X004937Y016010D01*
X004260Y016510D02*
X007760Y016510D01*
X007264Y017010D02*
X007215Y016990D01*
X004957Y016990D01*
X004937Y017010D01*
X004957Y017030D01*
X007215Y017030D01*
X007264Y017010D01*
X007760Y017510D02*
X004260Y017510D01*
X004937Y018010D02*
X004957Y018030D01*
X007215Y018030D01*
X007264Y018010D01*
X007215Y017990D01*
X004957Y017990D01*
X004937Y018010D01*
X004260Y018510D02*
X007760Y018510D01*
X007264Y019010D02*
X007215Y018990D01*
X004957Y018990D01*
X004937Y019010D01*
X004957Y019030D01*
X007215Y019030D01*
X007264Y019010D01*
X007760Y019510D02*
X004260Y019510D01*
X004940Y020007D02*
X007257Y020007D01*
X007152Y023829D02*
X006868Y023829D01*
X006152Y023829D02*
X005868Y023829D01*
X005152Y023829D02*
X004868Y023829D01*
X004152Y023829D02*
X002373Y023829D01*
X002536Y023511D02*
X003922Y023511D01*
X003890Y023192D02*
X002565Y023192D01*
X002480Y022874D02*
X003695Y022874D01*
X003376Y022555D02*
X002237Y022555D01*
X003460Y021281D02*
X017820Y021281D01*
X017820Y021600D02*
X003778Y021600D01*
X004097Y021918D02*
X017820Y021918D01*
X017820Y022237D02*
X013811Y022237D01*
X013510Y022237D02*
X013510Y022237D01*
X013209Y022237D02*
X012811Y022237D01*
X012510Y022237D02*
X012510Y022237D01*
X012209Y022237D02*
X011811Y022237D01*
X011510Y022237D02*
X011510Y022237D01*
X011209Y022237D02*
X010811Y022237D01*
X011510Y022555D02*
X011510Y022555D01*
X011510Y022874D02*
X011510Y022874D01*
X011510Y023192D02*
X011510Y023192D01*
X011510Y023511D02*
X011510Y023511D01*
X012510Y023511D02*
X012510Y023511D01*
X012510Y023192D02*
X012510Y023192D01*
X012510Y022874D02*
X012510Y022874D01*
X012510Y022555D02*
X012510Y022555D01*
X013510Y022555D02*
X013510Y022555D01*
X013510Y022874D02*
X013510Y022874D01*
X013510Y023192D02*
X013510Y023192D01*
X013510Y023511D02*
X013510Y023511D01*
X014034Y023511D02*
X016181Y023511D01*
X016152Y023192D02*
X014070Y023192D01*
X014070Y022874D02*
X016237Y022874D01*
X016480Y022555D02*
X014048Y022555D01*
X014940Y020007D02*
X017820Y020007D01*
X017820Y019689D02*
X015157Y019689D01*
X015173Y019370D02*
X017820Y019370D01*
X017820Y019052D02*
X014978Y019052D01*
X015139Y018733D02*
X017820Y018733D01*
X017820Y018415D02*
X015180Y018415D01*
X015023Y018096D02*
X017820Y018096D01*
X017820Y017778D02*
X015120Y017778D01*
X015180Y017459D02*
X017820Y017459D01*
X017820Y017141D02*
X015067Y017141D01*
X015102Y016822D02*
X017820Y016822D01*
X017820Y016504D02*
X015180Y016504D01*
X015096Y016185D02*
X017820Y016185D01*
X017820Y015867D02*
X015080Y015867D01*
X015180Y015548D02*
X017820Y015548D01*
X017820Y015230D02*
X015115Y015230D01*
X015036Y014911D02*
X017820Y014911D01*
X017820Y014593D02*
X015180Y014593D01*
X015133Y014274D02*
X017820Y014274D01*
X017820Y013956D02*
X014991Y013956D01*
X015178Y013637D02*
X017820Y013637D01*
X017820Y013319D02*
X015152Y013319D01*
X014947Y013000D02*
X017820Y013000D01*
X017820Y012682D02*
X015160Y012682D01*
X015170Y012363D02*
X017820Y012363D01*
X017820Y012045D02*
X014971Y012045D01*
X015855Y010990D02*
X011305Y010990D01*
X011256Y011010D01*
X011305Y011030D01*
X016311Y011030D01*
X017030Y010311D01*
X017030Y005209D01*
X016990Y005169D01*
X016990Y005355D01*
X016990Y009855D01*
X016917Y010032D01*
X016782Y010167D01*
X016032Y010917D01*
X015855Y010990D01*
X015760Y010510D02*
X016510Y009760D01*
X016510Y005260D01*
X015010Y003760D01*
X012510Y003760D01*
X011609Y005038D02*
X008161Y005038D01*
X007843Y005356D02*
X014177Y005356D01*
X014496Y005675D02*
X013620Y005675D01*
X013625Y005993D02*
X014780Y005993D01*
X014780Y006312D02*
X013625Y006312D01*
X013565Y006630D02*
X014780Y006630D01*
X014780Y006949D02*
X013565Y006949D01*
X012598Y007267D02*
X012196Y007267D01*
X010305Y005993D02*
X008215Y005993D01*
X008524Y006312D02*
X009996Y006312D01*
X009964Y006630D02*
X008556Y006630D01*
X008353Y006949D02*
X010167Y006949D01*
X010015Y007267D02*
X008505Y007267D01*
X008560Y007586D02*
X009960Y007586D01*
X010122Y007904D02*
X008398Y007904D01*
X008487Y008223D02*
X008705Y008223D01*
X007760Y008510D02*
X006260Y008510D01*
X006459Y008030D02*
X007215Y008030D01*
X007264Y008010D01*
X007215Y007990D01*
X006665Y007990D01*
X006488Y007917D01*
X006238Y007667D01*
X006103Y007532D01*
X006030Y007355D01*
X006030Y005919D01*
X005990Y005959D01*
X005990Y007561D01*
X006167Y007738D01*
X006459Y008030D01*
X006475Y007904D02*
X006333Y007904D01*
X006157Y007586D02*
X006014Y007586D01*
X005990Y007267D02*
X006030Y007267D01*
X006030Y006949D02*
X005990Y006949D01*
X005990Y006630D02*
X006030Y006630D01*
X006030Y006312D02*
X005990Y006312D01*
X005990Y005993D02*
X006030Y005993D01*
X005554Y005038D02*
X003911Y005038D01*
X003593Y005356D02*
X005235Y005356D01*
X005030Y005675D02*
X003274Y005675D01*
X002956Y005993D02*
X005030Y005993D01*
X005030Y006312D02*
X002740Y006312D01*
X002740Y006630D02*
X005030Y006630D01*
X005030Y006949D02*
X002740Y006949D01*
X002740Y007267D02*
X005030Y007267D01*
X005030Y007586D02*
X002740Y007586D01*
X002740Y007904D02*
X005050Y007904D01*
X005294Y008223D02*
X002740Y008223D01*
X002740Y008541D02*
X005612Y008541D01*
X005051Y009815D02*
X007040Y009815D01*
X007189Y010134D02*
X005051Y010134D01*
X004981Y010452D02*
X007023Y010452D01*
X007092Y010771D02*
X005449Y010771D01*
X005047Y011726D02*
X002973Y011726D01*
X002740Y012045D02*
X003549Y012045D01*
X003350Y012363D02*
X002740Y012363D01*
X002740Y012682D02*
X003360Y012682D01*
X003573Y013000D02*
X002740Y013000D01*
X002740Y013319D02*
X003368Y013319D01*
X003342Y013637D02*
X002740Y013637D01*
X002740Y013956D02*
X003529Y013956D01*
X003387Y014274D02*
X002740Y014274D01*
X002740Y014593D02*
X003340Y014593D01*
X003484Y014911D02*
X002740Y014911D01*
X002740Y015230D02*
X003405Y015230D01*
X003340Y015548D02*
X002740Y015548D01*
X002740Y015867D02*
X003440Y015867D01*
X003424Y016185D02*
X002740Y016185D01*
X002740Y016504D02*
X003340Y016504D01*
X003418Y016822D02*
X002740Y016822D01*
X002740Y017141D02*
X003453Y017141D01*
X003340Y017459D02*
X002740Y017459D01*
X002740Y017778D02*
X003400Y017778D01*
X003497Y018096D02*
X002740Y018096D01*
X002740Y018415D02*
X003340Y018415D01*
X003381Y018733D02*
X002740Y018733D01*
X002740Y019052D02*
X003542Y019052D01*
X003347Y019370D02*
X002740Y019370D01*
X002740Y019689D02*
X003363Y019689D01*
X003580Y020007D02*
X002740Y020007D01*
X002740Y020326D02*
X017820Y020326D01*
X017820Y020644D02*
X002823Y020644D01*
X003141Y020963D02*
X017820Y020963D01*
X017820Y022555D02*
X017647Y022555D01*
X017783Y023829D02*
X017820Y023829D01*
X017820Y024148D02*
X017302Y024148D01*
X009152Y023829D02*
X008868Y023829D01*
X008152Y023829D02*
X007868Y023829D01*
X002260Y011760D02*
X002260Y006010D01*
X006010Y002260D01*
X006461Y001534D02*
X006644Y001534D01*
X007010Y001534D02*
X007010Y001534D01*
X007010Y001853D02*
X007010Y001853D01*
X007010Y002171D02*
X007010Y002171D01*
X007010Y002260D02*
X007010Y002260D01*
X007010Y002490D02*
X007010Y002490D01*
X007010Y002808D02*
X007010Y002808D01*
X007146Y003445D02*
X005504Y003445D01*
X005185Y003764D02*
X006828Y003764D01*
X006509Y004082D02*
X004867Y004082D01*
X004548Y004401D02*
X006191Y004401D01*
X005872Y004719D02*
X004230Y004719D01*
X006262Y003127D02*
X007465Y003127D01*
X007376Y001534D02*
X007559Y001534D01*
X008461Y001534D02*
X008559Y001534D01*
X009010Y002260D02*
X009010Y003510D01*
X009425Y003764D02*
X010530Y003764D01*
X010653Y004082D02*
X009117Y004082D01*
X008798Y004401D02*
X010972Y004401D01*
X011290Y004719D02*
X008480Y004719D01*
X009490Y003445D02*
X010530Y003445D01*
X010530Y003127D02*
X010262Y003127D01*
X009758Y003127D02*
X009490Y003127D01*
X009461Y001534D02*
X009559Y001534D01*
X010461Y001534D02*
X010559Y001534D01*
X011461Y001534D02*
X011559Y001534D01*
X012461Y001534D02*
X012559Y001534D01*
X013461Y001534D02*
X016171Y001534D01*
X016152Y001853D02*
X015031Y001853D01*
X015350Y002171D02*
X016247Y002171D01*
X016504Y002490D02*
X015668Y002490D01*
X015987Y002808D02*
X017820Y002808D01*
X017820Y003127D02*
X016305Y003127D01*
X016624Y003445D02*
X017820Y003445D01*
X017820Y003764D02*
X016942Y003764D01*
X017261Y004082D02*
X017820Y004082D01*
X017820Y004401D02*
X017579Y004401D01*
X017030Y005356D02*
X016990Y005356D01*
X016990Y005675D02*
X017030Y005675D01*
X017030Y005993D02*
X016990Y005993D01*
X016990Y006312D02*
X017030Y006312D01*
X017030Y006630D02*
X016990Y006630D01*
X016990Y006949D02*
X017030Y006949D01*
X017030Y007267D02*
X016990Y007267D01*
X016990Y007586D02*
X017030Y007586D01*
X017030Y007904D02*
X016990Y007904D01*
X016990Y008223D02*
X017030Y008223D01*
X017030Y008541D02*
X016990Y008541D01*
X016990Y008860D02*
X017030Y008860D01*
X017030Y009178D02*
X016990Y009178D01*
X016990Y009497D02*
X017030Y009497D01*
X017030Y009815D02*
X016990Y009815D01*
X017030Y010134D02*
X016815Y010134D01*
X016782Y010167D02*
X016782Y010167D01*
X016889Y010452D02*
X016497Y010452D01*
X016571Y010771D02*
X016178Y010771D01*
X015760Y010510D02*
X010760Y010510D01*
X015134Y009815D02*
X015776Y009815D01*
X016030Y009497D02*
X015452Y009497D01*
X015710Y009178D02*
X016030Y009178D01*
X016030Y008860D02*
X015740Y008860D01*
X015740Y008541D02*
X016030Y008541D01*
X016030Y008223D02*
X015740Y008223D01*
X015740Y007904D02*
X016030Y007904D01*
X016030Y007586D02*
X015740Y007586D01*
X015740Y007267D02*
X016030Y007267D01*
X016030Y006949D02*
X015740Y006949D01*
X015740Y006630D02*
X016030Y006630D01*
X016030Y006312D02*
X015740Y006312D01*
X015740Y005993D02*
X016030Y005993D01*
X016030Y005675D02*
X015740Y005675D01*
X015927Y005356D02*
X015535Y005356D01*
X015609Y005038D02*
X015216Y005038D01*
X015290Y004719D02*
X014898Y004719D01*
X014972Y004401D02*
X014579Y004401D01*
X017361Y000897D02*
X017820Y000897D01*
X017807Y001216D02*
X017820Y001216D01*
X017820Y002490D02*
X017622Y002490D01*
X017610Y011089D02*
X017820Y011089D01*
X017820Y011408D02*
X017291Y011408D01*
X016973Y011726D02*
X017820Y011726D01*
X003539Y010452D02*
X002740Y010452D01*
X002740Y010134D02*
X003469Y010134D01*
X003469Y009815D02*
X002740Y009815D01*
X002740Y009497D02*
X003514Y009497D01*
M02*
