%
M48
M72
T01C0.0320
T02C0.0400
T03C0.1102
%
T01
X7760Y6510
X7760Y7510
X7760Y8510
X7760Y9510
X7760Y10510
X7760Y11510
X7760Y12510
X7760Y13510
X7760Y14510
X7760Y15510
X7760Y16510
X7760Y17510
X7760Y18510
X7760Y19510
X10760Y19510
X10760Y18510
X10760Y17510
X10760Y16510
X10760Y15510
X10760Y14510
X10760Y13510
X10760Y12510
X10760Y11510
X10760Y10510
X10760Y9510
X10760Y8510
X10760Y7510
X10760Y6510
T02
X11010Y2260
X10010Y2260
X9010Y2260
X8010Y2260
X7010Y2260
X6010Y2260
X12010Y2260
X13010Y2260
X14260Y12510
X14260Y13510
X14260Y14510
X14260Y15510
X14260Y16510
X14260Y17510
X14260Y18510
X14260Y19510
X13510Y23010
X12510Y23010
X11510Y23010
X10510Y23010
X9510Y23010
X8510Y23010
X7510Y23010
X6510Y23010
X5510Y23010
X4510Y23010
X4260Y19510
X4260Y18510
X4260Y17510
X4260Y16510
X4260Y15510
X4260Y14510
X4260Y13510
X4260Y12510
T03
X1654Y1760
X17063Y1760
X17063Y23260
X1654Y23260
M30
