G75*
%MOIN*%
%OFA0B0*%
%FSLAX24Y24*%
%IPPOS*%
%LPD*%
%AMOC8*
5,1,8,0,0,1.08239X$1,22.5*
%
%ADD10R,0.0787X0.0787*%
%ADD11C,0.0480*%
%ADD12R,0.0591X0.0512*%
%ADD13C,0.0540*%
%ADD14C,0.0531*%
%ADD15R,0.0591X0.0591*%
%ADD16C,0.0591*%
%ADD17C,0.0720*%
%ADD18OC8,0.0480*%
%ADD19R,0.0512X0.0591*%
%ADD20R,0.0472X0.0472*%
%ADD21C,0.0531*%
%ADD22C,0.0705*%
%ADD23C,0.0600*%
%ADD24OC8,0.0600*%
%ADD25C,0.0320*%
%ADD26C,0.0400*%
%ADD27C,0.0240*%
%ADD28C,0.0860*%
%ADD29C,0.0120*%
D10*
X009260Y002260D03*
X024260Y008260D03*
D11*
X015500Y004260D02*
X015020Y004260D01*
X012500Y004260D02*
X012020Y004260D01*
X034020Y013760D02*
X034500Y013760D01*
X037020Y013760D02*
X037500Y013760D01*
D12*
X035010Y021636D03*
X035010Y022384D03*
X029760Y004634D03*
X029760Y003886D03*
X027260Y003886D03*
X027260Y004634D03*
X009260Y009386D03*
X009260Y010134D03*
X005260Y005134D03*
X005260Y004386D03*
X003760Y004386D03*
X003760Y005134D03*
X004510Y016186D03*
X004510Y016934D03*
X007010Y016934D03*
X007010Y016186D03*
D13*
X011760Y012280D02*
X011760Y011740D01*
X012760Y011740D02*
X012760Y012280D01*
X013760Y012280D02*
X013760Y011740D01*
X025260Y010780D02*
X025260Y010240D01*
X026260Y010240D02*
X026260Y010780D01*
X027260Y010780D02*
X027260Y010240D01*
D14*
X022760Y009327D02*
X022760Y008795D01*
X021760Y008795D02*
X021760Y009327D01*
X018760Y009327D02*
X018760Y008795D01*
X017760Y008795D02*
X017760Y009327D01*
X017760Y001925D02*
X017760Y001393D01*
X018760Y001393D02*
X018760Y001925D01*
X021760Y001925D02*
X021760Y001393D01*
X022760Y001393D02*
X022760Y001925D01*
X033351Y005392D02*
X033351Y005923D01*
X038075Y005923D02*
X038075Y005392D01*
X035979Y011169D02*
X035447Y011169D01*
D15*
X005260Y023260D03*
D16*
X004260Y023260D03*
X003260Y023260D03*
X002260Y023260D03*
D17*
X016900Y022760D02*
X017620Y022760D01*
X017620Y021760D02*
X016900Y021760D01*
X016900Y020760D02*
X017620Y020760D01*
X017620Y019760D02*
X016900Y019760D01*
X016900Y018760D02*
X017620Y018760D01*
X017620Y017760D02*
X016900Y017760D01*
X016900Y016760D02*
X017620Y016760D01*
X017620Y015760D02*
X016900Y015760D01*
X025900Y015760D02*
X026620Y015760D01*
X026620Y016760D02*
X025900Y016760D01*
X025900Y017760D02*
X026620Y017760D01*
X026620Y018760D02*
X025900Y018760D01*
X025900Y019760D02*
X026620Y019760D01*
X026620Y020760D02*
X025900Y020760D01*
X025900Y021760D02*
X026620Y021760D01*
X026620Y022760D02*
X025900Y022760D01*
D18*
X031760Y007760D03*
X031010Y007260D03*
X031760Y006760D03*
X009260Y006260D03*
X008510Y006760D03*
X009260Y007260D03*
D19*
X006134Y006760D03*
X005386Y006760D03*
X028886Y007260D03*
X029634Y007260D03*
D20*
X029760Y002173D03*
X029760Y001347D03*
X004260Y001347D03*
X004260Y002173D03*
D21*
X033351Y010382D03*
X038075Y010382D03*
D22*
X036260Y002363D02*
X036260Y001658D01*
X034260Y001658D02*
X034260Y002363D01*
D23*
X032560Y015760D02*
X031960Y015760D01*
X031960Y016760D02*
X032560Y016760D01*
X032560Y017760D02*
X031960Y017760D01*
X031960Y018760D02*
X032560Y018760D01*
X032560Y019760D02*
X031960Y019760D01*
X031960Y020760D02*
X032560Y020760D01*
X032560Y021760D02*
X031960Y021760D01*
X031960Y022760D02*
X032560Y022760D01*
X030060Y022760D02*
X029460Y022760D01*
X029460Y021760D02*
X030060Y021760D01*
X030060Y020760D02*
X029460Y020760D01*
X029460Y019760D02*
X030060Y019760D01*
X030060Y018760D02*
X029460Y018760D01*
X029460Y017760D02*
X030060Y017760D01*
X030060Y016760D02*
X029460Y016760D01*
X029460Y015760D02*
X030060Y015760D01*
X014060Y015760D02*
X013460Y015760D01*
X013460Y016760D02*
X014060Y016760D01*
X014060Y017760D02*
X013460Y017760D01*
X013460Y018760D02*
X014060Y018760D01*
X014060Y019760D02*
X013460Y019760D01*
X013460Y020760D02*
X014060Y020760D01*
X014060Y021760D02*
X013460Y021760D01*
X013460Y022760D02*
X014060Y022760D01*
X012060Y022760D02*
X011460Y022760D01*
X011460Y021760D02*
X012060Y021760D01*
X012060Y020760D02*
X011460Y020760D01*
X011460Y019760D02*
X012060Y019760D01*
X012060Y018760D02*
X011460Y018760D01*
X011460Y017760D02*
X012060Y017760D01*
X012060Y016760D02*
X011460Y016760D01*
X011460Y015760D02*
X012060Y015760D01*
X012260Y001960D02*
X012260Y001360D01*
X013260Y001360D02*
X013260Y001960D01*
D24*
X011760Y006260D03*
X001760Y004760D03*
X002710Y016940D03*
X027260Y005760D03*
D25*
X002211Y001071D02*
X002074Y000740D01*
X011928Y000740D01*
X011863Y000767D01*
X011667Y000963D01*
X011560Y001221D01*
X011560Y002099D01*
X011660Y002341D01*
X011660Y003716D01*
X011657Y003717D01*
X011477Y003897D01*
X011380Y004133D01*
X011380Y004387D01*
X011477Y004623D01*
X011657Y004803D01*
X011893Y004900D01*
X012627Y004900D01*
X012863Y004803D01*
X013043Y004623D01*
X013140Y004387D01*
X013140Y004133D01*
X013043Y003897D01*
X012863Y003717D01*
X012860Y003716D01*
X012860Y002352D01*
X012895Y002387D01*
X012966Y002439D01*
X013045Y002479D01*
X013129Y002506D01*
X013216Y002520D01*
X013260Y002520D01*
X013260Y001660D01*
X013260Y001660D01*
X013820Y001660D01*
X013820Y002004D01*
X013806Y002091D01*
X013779Y002175D01*
X013739Y002254D01*
X013687Y002325D01*
X013625Y002387D01*
X013554Y002439D01*
X013475Y002479D01*
X013391Y002506D01*
X013304Y002520D01*
X013260Y002520D01*
X013260Y001660D01*
X013260Y001660D01*
X013820Y001660D01*
X013820Y001316D01*
X013806Y001229D01*
X013779Y001145D01*
X013739Y001066D01*
X013687Y000995D01*
X013625Y000933D01*
X013554Y000881D01*
X013475Y000841D01*
X013391Y000814D01*
X013304Y000800D01*
X013260Y000800D01*
X013260Y001660D01*
X013260Y001660D01*
X013260Y000800D01*
X013216Y000800D01*
X013129Y000814D01*
X013045Y000841D01*
X012966Y000881D01*
X012895Y000933D01*
X012857Y000971D01*
X012853Y000963D01*
X012657Y000767D01*
X012592Y000740D01*
X021598Y000740D01*
X021383Y000829D01*
X021196Y001016D01*
X021094Y001261D01*
X021094Y002057D01*
X021160Y002216D01*
X021160Y002511D01*
X020011Y003660D01*
X015724Y003660D01*
X015627Y003620D01*
X014893Y003620D01*
X014657Y003717D01*
X014477Y003897D01*
X014380Y004133D01*
X014380Y004387D01*
X014477Y004623D01*
X014657Y004803D01*
X014660Y004804D01*
X014660Y008511D01*
X013251Y009920D01*
X013160Y010141D01*
X013160Y011192D01*
X013140Y011172D01*
X012893Y011070D01*
X012627Y011070D01*
X012380Y011172D01*
X012260Y011292D01*
X012140Y011172D01*
X011893Y011070D01*
X011627Y011070D01*
X011380Y011172D01*
X011192Y011360D01*
X011090Y011607D01*
X011090Y012413D01*
X011192Y012660D01*
X011192Y012660D01*
X009817Y012660D01*
X009596Y012751D01*
X006817Y015530D01*
X006635Y015530D01*
X006488Y015591D01*
X006376Y015703D01*
X006315Y015851D01*
X006315Y016334D01*
X005065Y016334D01*
X005065Y016186D01*
X004510Y016186D01*
X004510Y016186D01*
X004510Y016186D01*
X003955Y016186D01*
X003955Y015904D01*
X003965Y015854D01*
X003984Y015807D01*
X004013Y015764D01*
X004049Y015728D01*
X004092Y015700D01*
X004139Y015680D01*
X004189Y015670D01*
X004510Y015670D01*
X004831Y015670D01*
X004881Y015680D01*
X004928Y015700D01*
X004971Y015728D01*
X005007Y015764D01*
X005036Y015807D01*
X005055Y015854D01*
X005065Y015904D01*
X005065Y016186D01*
X004510Y016186D01*
X003955Y016186D01*
X003955Y016334D01*
X003094Y016334D01*
X003000Y016240D01*
X002420Y016240D01*
X002360Y016300D01*
X002360Y015975D01*
X006669Y010734D01*
X008750Y010734D01*
X008885Y010790D01*
X009635Y010790D01*
X009782Y010729D01*
X009894Y010617D01*
X009955Y010469D01*
X009955Y009799D01*
X009939Y009760D01*
X009955Y009721D01*
X009955Y009491D01*
X012248Y006762D01*
X012460Y006550D01*
X012460Y006435D01*
X012494Y006327D01*
X012473Y006089D01*
X012460Y006063D01*
X012460Y005970D01*
X012050Y005560D01*
X011470Y005560D01*
X011370Y005660D01*
X009565Y005660D01*
X009525Y005620D01*
X008995Y005620D01*
X008620Y005995D01*
X008620Y006120D01*
X008245Y006120D01*
X008205Y006160D01*
X006651Y006160D01*
X006617Y006126D01*
X006469Y006065D01*
X005986Y006065D01*
X005986Y005141D01*
X005955Y005067D01*
X005955Y004799D01*
X005939Y004760D01*
X005955Y004721D01*
X005955Y004051D01*
X005894Y003903D01*
X005860Y003869D01*
X005860Y003054D01*
X005769Y002834D01*
X004896Y001961D01*
X004896Y001858D01*
X004835Y001711D01*
X004752Y001628D01*
X004756Y001608D01*
X004756Y001347D01*
X004260Y001347D01*
X004260Y001347D01*
X004260Y001347D01*
X003764Y001347D01*
X003764Y001608D01*
X003768Y001628D01*
X003685Y001711D01*
X003624Y001858D01*
X003624Y002489D01*
X003685Y002636D01*
X003797Y002749D01*
X003944Y002810D01*
X004048Y002810D01*
X004660Y003422D01*
X004660Y003869D01*
X004626Y003903D01*
X004565Y004051D01*
X004565Y004534D01*
X004315Y004534D01*
X004315Y004386D01*
X003760Y004386D01*
X003760Y004386D01*
X003760Y004386D01*
X003205Y004386D01*
X003205Y004104D01*
X003215Y004054D01*
X003234Y004007D01*
X003263Y003964D01*
X003299Y003928D01*
X003342Y003900D01*
X003389Y003880D01*
X003439Y003870D01*
X003760Y003870D01*
X004081Y003870D01*
X004131Y003880D01*
X004178Y003900D01*
X004221Y003928D01*
X004257Y003964D01*
X004286Y004007D01*
X004305Y004054D01*
X004315Y004104D01*
X004315Y004386D01*
X003760Y004386D01*
X003205Y004386D01*
X003205Y004534D01*
X002460Y004534D01*
X002460Y004470D01*
X002050Y004060D01*
X001470Y004060D01*
X001060Y004470D01*
X001060Y005050D01*
X001470Y005460D01*
X001611Y005460D01*
X001794Y005643D01*
X002015Y005734D01*
X003250Y005734D01*
X003385Y005790D01*
X004135Y005790D01*
X004270Y005734D01*
X004750Y005734D01*
X004786Y005749D01*
X004786Y006250D01*
X004730Y006385D01*
X004730Y007135D01*
X004791Y007282D01*
X004903Y007394D01*
X005051Y007455D01*
X005721Y007455D01*
X005760Y007439D01*
X005799Y007455D01*
X006469Y007455D01*
X006617Y007394D01*
X006651Y007360D01*
X008205Y007360D01*
X008245Y007400D01*
X008760Y007400D01*
X008760Y007467D01*
X009053Y007760D01*
X009260Y007760D01*
X009260Y007260D01*
X009260Y007260D01*
X009760Y007260D01*
X009760Y007467D01*
X009467Y007760D01*
X009260Y007760D01*
X009260Y007260D01*
X009260Y007260D01*
X009760Y007260D01*
X009760Y007053D01*
X009567Y006860D01*
X010598Y006860D01*
X009027Y008730D01*
X008885Y008730D01*
X008738Y008791D01*
X008626Y008903D01*
X008565Y009051D01*
X008565Y009534D01*
X006475Y009534D01*
X006447Y009525D01*
X006357Y009534D01*
X006267Y009534D01*
X006239Y009546D01*
X006209Y009548D01*
X006129Y009591D01*
X006046Y009625D01*
X006025Y009647D01*
X005998Y009661D01*
X005941Y009730D01*
X005877Y009794D01*
X005866Y009822D01*
X001315Y015356D01*
X001251Y015420D01*
X001240Y015448D01*
X001221Y015471D01*
X001194Y015557D01*
X001160Y015641D01*
X001160Y015671D01*
X001151Y015699D01*
X001160Y015789D01*
X001160Y017879D01*
X001251Y018100D01*
X001420Y018269D01*
X001420Y018269D01*
X001751Y018600D01*
X001751Y018600D01*
X001920Y018769D01*
X002141Y018860D01*
X004344Y018860D01*
X004199Y018920D01*
X003920Y019199D01*
X003769Y019563D01*
X003769Y019957D01*
X003854Y020160D01*
X003141Y020160D01*
X002920Y020251D01*
X001920Y021251D01*
X001751Y021420D01*
X001660Y021641D01*
X001660Y022892D01*
X001565Y023122D01*
X001565Y023398D01*
X001671Y023654D01*
X001866Y023849D01*
X002122Y023955D01*
X002398Y023955D01*
X002654Y023849D01*
X002760Y023743D01*
X002866Y023849D01*
X003122Y023955D01*
X003398Y023955D01*
X003654Y023849D01*
X003849Y023654D01*
X003855Y023640D01*
X003898Y023684D01*
X003969Y023735D01*
X004047Y023775D01*
X004130Y023802D01*
X004216Y023815D01*
X004260Y023815D01*
X004260Y023260D01*
X004260Y023260D01*
X004260Y023815D01*
X004304Y023815D01*
X004390Y023802D01*
X004473Y023775D01*
X004551Y023735D01*
X004593Y023704D01*
X004626Y023782D01*
X004738Y023894D01*
X004885Y023955D01*
X005635Y023955D01*
X005782Y023894D01*
X005816Y023860D01*
X008879Y023860D01*
X009100Y023769D01*
X009269Y023600D01*
X009269Y023600D01*
X009509Y023360D01*
X011079Y023360D01*
X011321Y023460D01*
X012199Y023460D01*
X012457Y023353D01*
X012653Y023157D01*
X012760Y022899D01*
X012760Y022621D01*
X012653Y022363D01*
X012550Y022260D01*
X012653Y022157D01*
X012760Y021899D01*
X012760Y021621D01*
X012653Y021363D01*
X012550Y021260D01*
X012653Y021157D01*
X012760Y020899D01*
X012760Y020621D01*
X012653Y020363D01*
X012550Y020260D01*
X012653Y020157D01*
X012760Y019899D01*
X012760Y019621D01*
X012653Y019363D01*
X012550Y019260D01*
X012653Y019157D01*
X012760Y018899D01*
X012760Y018621D01*
X012653Y018363D01*
X012550Y018260D01*
X012653Y018157D01*
X012760Y017899D01*
X012760Y017621D01*
X012653Y017363D01*
X012457Y017167D01*
X012449Y017163D01*
X012487Y017125D01*
X012539Y017054D01*
X012579Y016975D01*
X012606Y016891D01*
X012620Y016804D01*
X012620Y016760D01*
X011760Y016760D01*
X011760Y016760D01*
X011760Y016760D01*
X010900Y016760D01*
X010900Y016804D01*
X010914Y016891D01*
X010941Y016975D01*
X010981Y017054D01*
X011033Y017125D01*
X011071Y017163D01*
X011063Y017167D01*
X010867Y017363D01*
X010760Y017621D01*
X010760Y017899D01*
X010867Y018157D01*
X010970Y018260D01*
X010867Y018363D01*
X010760Y018621D01*
X010760Y018899D01*
X010867Y019157D01*
X010870Y019160D01*
X006879Y019160D01*
X006641Y019160D01*
X006420Y019251D01*
X005751Y019921D01*
X005751Y019563D01*
X005600Y019199D01*
X005321Y018920D01*
X005176Y018860D01*
X007879Y018860D01*
X008100Y018769D01*
X008269Y018600D01*
X008269Y018600D01*
X010821Y016047D01*
X010867Y016157D01*
X011063Y016353D01*
X011071Y016357D01*
X011033Y016395D01*
X010981Y016466D01*
X010941Y016545D01*
X010914Y016629D01*
X010900Y016716D01*
X010900Y016760D01*
X011760Y016760D01*
X012620Y016760D01*
X012620Y016716D01*
X012606Y016629D01*
X012579Y016545D01*
X012539Y016466D01*
X012487Y016395D01*
X012449Y016357D01*
X012457Y016353D01*
X012500Y016310D01*
X012600Y016269D01*
X012769Y016100D01*
X012769Y016100D01*
X012821Y016047D01*
X012867Y016157D01*
X012970Y016260D01*
X012867Y016363D01*
X012760Y016621D01*
X012760Y016899D01*
X012867Y017157D01*
X012970Y017260D01*
X012867Y017363D01*
X012760Y017621D01*
X012760Y017899D01*
X012867Y018157D01*
X012970Y018260D01*
X012867Y018363D01*
X012760Y018621D01*
X012760Y018899D01*
X012867Y019157D01*
X012970Y019260D01*
X012867Y019363D01*
X012760Y019621D01*
X012760Y019899D01*
X012867Y020157D01*
X012970Y020260D01*
X012867Y020363D01*
X012760Y020621D01*
X012760Y020899D01*
X012867Y021157D01*
X012970Y021260D01*
X012867Y021363D01*
X012760Y021621D01*
X012760Y021899D01*
X012867Y022157D01*
X012970Y022260D01*
X012867Y022363D01*
X012760Y022621D01*
X012760Y022899D01*
X012867Y023157D01*
X013063Y023353D01*
X013321Y023460D01*
X014199Y023460D01*
X014441Y023360D01*
X016425Y023360D01*
X016469Y023404D01*
X016749Y023520D01*
X017771Y023520D01*
X018051Y023404D01*
X018264Y023191D01*
X018380Y022911D01*
X018380Y022609D01*
X018264Y022329D01*
X018195Y022260D01*
X018264Y022191D01*
X018380Y021911D01*
X018380Y021609D01*
X018264Y021329D01*
X018195Y021260D01*
X018264Y021191D01*
X018380Y020911D01*
X018380Y020609D01*
X018264Y020329D01*
X018195Y020260D01*
X018264Y020191D01*
X018380Y019911D01*
X018380Y019609D01*
X018264Y019329D01*
X018195Y019260D01*
X018264Y019191D01*
X018380Y018911D01*
X018380Y018609D01*
X018264Y018329D01*
X018195Y018260D01*
X018264Y018191D01*
X018380Y017911D01*
X018380Y017609D01*
X018264Y017329D01*
X018195Y017260D01*
X018264Y017191D01*
X018380Y016911D01*
X018380Y016609D01*
X018264Y016329D01*
X018195Y016260D01*
X018264Y016191D01*
X018380Y015911D01*
X018380Y015609D01*
X018264Y015329D01*
X018051Y015116D01*
X017771Y015000D01*
X016749Y015000D01*
X016469Y015116D01*
X016445Y015140D01*
X014979Y015140D01*
X016259Y013860D01*
X025629Y013860D01*
X025850Y013769D01*
X027600Y012019D01*
X027769Y011850D01*
X027860Y011629D01*
X027860Y011082D01*
X027930Y010913D01*
X027930Y010279D01*
X031660Y014009D01*
X031660Y015127D01*
X031563Y015167D01*
X031367Y015363D01*
X031260Y015621D01*
X031260Y015899D01*
X031367Y016157D01*
X031470Y016260D01*
X031367Y016363D01*
X031260Y016621D01*
X031260Y016899D01*
X031367Y017157D01*
X031470Y017260D01*
X031367Y017363D01*
X031260Y017621D01*
X031260Y017899D01*
X031367Y018157D01*
X031470Y018260D01*
X031367Y018363D01*
X031260Y018621D01*
X031260Y018899D01*
X031367Y019157D01*
X031470Y019260D01*
X031367Y019363D01*
X031260Y019621D01*
X031260Y019899D01*
X031367Y020157D01*
X031470Y020260D01*
X031367Y020363D01*
X031260Y020621D01*
X031260Y020899D01*
X031367Y021157D01*
X031470Y021260D01*
X031367Y021363D01*
X031260Y021621D01*
X031260Y021899D01*
X031367Y022157D01*
X031470Y022260D01*
X031367Y022363D01*
X031260Y022621D01*
X031260Y022899D01*
X031367Y023157D01*
X031563Y023353D01*
X031821Y023460D01*
X032111Y023460D01*
X032420Y023769D01*
X032641Y023860D01*
X034379Y023860D01*
X034600Y023769D01*
X034769Y023600D01*
X035329Y023040D01*
X035385Y023040D01*
X035532Y022979D01*
X035644Y022867D01*
X035705Y022719D01*
X035705Y022049D01*
X035689Y022010D01*
X035705Y021971D01*
X035705Y021301D01*
X035644Y021153D01*
X035532Y021041D01*
X035385Y020980D01*
X035329Y020980D01*
X034769Y020420D01*
X034600Y020251D01*
X034379Y020160D01*
X033150Y020160D01*
X033153Y020157D01*
X033260Y019899D01*
X033260Y019621D01*
X033153Y019363D01*
X033050Y019260D01*
X033153Y019157D01*
X033260Y018899D01*
X033260Y018621D01*
X033153Y018363D01*
X033050Y018260D01*
X033153Y018157D01*
X033260Y017899D01*
X033260Y017621D01*
X033153Y017363D01*
X033050Y017260D01*
X033153Y017157D01*
X033260Y016899D01*
X033260Y016621D01*
X033153Y016363D01*
X033050Y016260D01*
X033153Y016157D01*
X033260Y015899D01*
X033260Y015621D01*
X033153Y015363D01*
X032957Y015167D01*
X032860Y015127D01*
X032860Y013641D01*
X032769Y013420D01*
X024769Y005420D01*
X024600Y005251D01*
X024379Y005160D01*
X021641Y005160D01*
X021420Y005251D01*
X019920Y006751D01*
X019751Y006920D01*
X019660Y007141D01*
X019660Y009879D01*
X019673Y009910D01*
X018091Y009910D01*
X018137Y009891D01*
X018324Y009704D01*
X018346Y009651D01*
X018359Y009669D01*
X018417Y009728D01*
X018484Y009776D01*
X018558Y009814D01*
X018637Y009839D01*
X018719Y009852D01*
X018760Y009852D01*
X018760Y009061D01*
X018760Y009061D01*
X018760Y009852D01*
X018801Y009852D01*
X018883Y009839D01*
X018962Y009814D01*
X019036Y009776D01*
X019103Y009728D01*
X019161Y009669D01*
X019210Y009602D01*
X019247Y009528D01*
X019273Y009450D01*
X019286Y009368D01*
X019286Y009061D01*
X018760Y009061D01*
X018760Y009061D01*
X019286Y009061D01*
X019286Y008754D01*
X019273Y008672D01*
X019247Y008593D01*
X019210Y008519D01*
X019161Y008453D01*
X019103Y008394D01*
X019036Y008345D01*
X018962Y008308D01*
X018883Y008282D01*
X018801Y008269D01*
X018760Y008269D01*
X018760Y009061D01*
X018760Y008269D01*
X018719Y008269D01*
X018637Y008282D01*
X018558Y008308D01*
X018484Y008345D01*
X018417Y008394D01*
X018359Y008453D01*
X018346Y008470D01*
X018324Y008418D01*
X018137Y008231D01*
X017892Y008129D01*
X017628Y008129D01*
X017383Y008231D01*
X017196Y008418D01*
X017094Y008663D01*
X017094Y009459D01*
X017196Y009704D01*
X017383Y009891D01*
X017429Y009910D01*
X015641Y009910D01*
X015420Y010001D01*
X015251Y010170D01*
X015251Y010170D01*
X014670Y010751D01*
X014670Y010751D01*
X014501Y010920D01*
X014410Y011141D01*
X014410Y011558D01*
X014360Y011438D01*
X014360Y010509D01*
X015600Y009269D01*
X015769Y009100D01*
X015860Y008879D01*
X015860Y004860D01*
X020379Y004860D01*
X020600Y004769D01*
X022100Y003269D01*
X022269Y003100D01*
X022360Y002879D01*
X022360Y002466D01*
X022383Y002489D01*
X022628Y002591D01*
X022892Y002591D01*
X023137Y002489D01*
X023324Y002302D01*
X023426Y002057D01*
X023426Y001261D01*
X023324Y001016D01*
X023137Y000829D01*
X022922Y000740D01*
X032258Y000740D01*
X032260Y000760D01*
X032260Y006160D01*
X032065Y006160D01*
X032025Y006120D01*
X031495Y006120D01*
X031120Y006495D01*
X031120Y006620D01*
X030745Y006620D01*
X030705Y006660D01*
X030151Y006660D01*
X030117Y006626D01*
X029969Y006565D01*
X029299Y006565D01*
X029260Y006581D01*
X029221Y006565D01*
X028913Y006565D01*
X027960Y005611D01*
X027960Y005470D01*
X027860Y005370D01*
X027860Y005234D01*
X029250Y005234D01*
X029385Y005290D01*
X030135Y005290D01*
X030282Y005229D01*
X030394Y005117D01*
X030455Y004969D01*
X030455Y004299D01*
X030439Y004260D01*
X030455Y004221D01*
X030455Y003551D01*
X030394Y003403D01*
X030360Y003369D01*
X030360Y002577D01*
X030396Y002489D01*
X030396Y001858D01*
X030335Y001711D01*
X030252Y001628D01*
X030256Y001608D01*
X030256Y001347D01*
X029760Y001347D01*
X029760Y001347D01*
X029760Y001347D01*
X029264Y001347D01*
X029264Y001608D01*
X029268Y001628D01*
X029185Y001711D01*
X029124Y001858D01*
X029124Y002489D01*
X029160Y002577D01*
X029160Y003369D01*
X029126Y003403D01*
X029065Y003551D01*
X029065Y004034D01*
X027815Y004034D01*
X027815Y003886D01*
X027260Y003886D01*
X027260Y003886D01*
X027260Y003886D01*
X026705Y003886D01*
X026705Y003604D01*
X026715Y003554D01*
X026734Y003507D01*
X026763Y003464D01*
X026799Y003428D01*
X026842Y003400D01*
X026889Y003380D01*
X026939Y003370D01*
X027260Y003370D01*
X027581Y003370D01*
X027631Y003380D01*
X027678Y003400D01*
X027721Y003428D01*
X027757Y003464D01*
X027786Y003507D01*
X027805Y003554D01*
X027815Y003604D01*
X027815Y003886D01*
X027260Y003886D01*
X026705Y003886D01*
X026705Y004072D01*
X026626Y004152D01*
X026565Y004299D01*
X026565Y004969D01*
X026626Y005117D01*
X026660Y005151D01*
X026660Y005370D01*
X026560Y005470D01*
X026560Y006050D01*
X026970Y006460D01*
X027111Y006460D01*
X028230Y007579D01*
X028230Y007635D01*
X028291Y007782D01*
X028403Y007894D01*
X028551Y007955D01*
X029221Y007955D01*
X029260Y007939D01*
X029299Y007955D01*
X029969Y007955D01*
X030117Y007894D01*
X030151Y007860D01*
X030705Y007860D01*
X030745Y007900D01*
X031260Y007900D01*
X031260Y007967D01*
X031553Y008260D01*
X031760Y008260D01*
X031760Y007760D01*
X031760Y007760D01*
X032260Y007760D01*
X032260Y007967D01*
X031967Y008260D01*
X031760Y008260D01*
X031760Y007760D01*
X031760Y007760D01*
X032260Y007760D01*
X032260Y007609D01*
X032260Y007609D01*
X032260Y011760D01*
X032268Y011847D01*
X032290Y011931D01*
X032327Y012010D01*
X032377Y012081D01*
X032439Y012143D01*
X032510Y012193D01*
X032589Y012230D01*
X032660Y012249D01*
X032660Y012879D01*
X032751Y013100D01*
X032920Y013269D01*
X032920Y013269D01*
X033380Y013729D01*
X033380Y013887D01*
X033477Y014123D01*
X033657Y014303D01*
X033893Y014400D01*
X034627Y014400D01*
X034863Y014303D01*
X035043Y014123D01*
X035140Y013887D01*
X035140Y013633D01*
X035043Y013397D01*
X034863Y013217D01*
X034627Y013120D01*
X034469Y013120D01*
X033860Y012511D01*
X033860Y012260D01*
X037660Y012260D01*
X037660Y012511D01*
X037051Y013120D01*
X036893Y013120D01*
X036657Y013217D01*
X036477Y013397D01*
X036380Y013633D01*
X036380Y013887D01*
X036477Y014123D01*
X036657Y014303D01*
X036893Y014400D01*
X037627Y014400D01*
X037863Y014303D01*
X038043Y014123D01*
X038140Y013887D01*
X038140Y013729D01*
X038600Y013269D01*
X038769Y013100D01*
X038780Y013072D01*
X038780Y025946D01*
X038449Y025809D01*
X038071Y025809D01*
X037721Y025954D01*
X037454Y026221D01*
X037309Y026571D01*
X037309Y026949D01*
X037446Y027280D01*
X002074Y027280D01*
X002211Y026949D01*
X002211Y026571D01*
X002066Y026221D01*
X001799Y025954D01*
X001449Y025809D01*
X001071Y025809D01*
X000740Y025946D01*
X000740Y002074D01*
X001071Y002211D01*
X001449Y002211D01*
X001799Y002066D01*
X002066Y001799D01*
X002211Y001449D01*
X002211Y001071D01*
X002211Y001216D02*
X003764Y001216D01*
X003764Y001347D02*
X003764Y001085D01*
X003774Y001035D01*
X003793Y000987D01*
X003822Y000945D01*
X003858Y000908D01*
X003901Y000880D01*
X003948Y000860D01*
X003998Y000850D01*
X004260Y000850D01*
X004522Y000850D01*
X004572Y000860D01*
X004619Y000880D01*
X004662Y000908D01*
X004698Y000945D01*
X004727Y000987D01*
X004746Y001035D01*
X004756Y001085D01*
X004756Y001347D01*
X004260Y001347D01*
X003764Y001347D01*
X003764Y001534D02*
X002176Y001534D01*
X002013Y001853D02*
X003626Y001853D01*
X003624Y002171D02*
X001546Y002171D01*
X000974Y002171D02*
X000740Y002171D01*
X000740Y002490D02*
X003624Y002490D01*
X003940Y002808D02*
X000740Y002808D01*
X000740Y003127D02*
X004365Y003127D01*
X004660Y003445D02*
X000740Y003445D01*
X000740Y003764D02*
X004660Y003764D01*
X004565Y004082D02*
X004311Y004082D01*
X004315Y004401D02*
X004565Y004401D01*
X003760Y004386D02*
X003760Y003870D01*
X003760Y004386D01*
X003760Y004386D01*
X003760Y004082D02*
X003760Y004082D01*
X003209Y004082D02*
X002072Y004082D01*
X002390Y004401D02*
X003205Y004401D01*
X001448Y004082D02*
X000740Y004082D01*
X000740Y004401D02*
X001130Y004401D01*
X001060Y004719D02*
X000740Y004719D01*
X000740Y005038D02*
X001060Y005038D01*
X001366Y005356D02*
X000740Y005356D01*
X000740Y005675D02*
X001871Y005675D01*
X000740Y005993D02*
X004786Y005993D01*
X004761Y006312D02*
X000740Y006312D01*
X000740Y006630D02*
X004730Y006630D01*
X004730Y006949D02*
X000740Y006949D01*
X000740Y007267D02*
X004785Y007267D01*
X005986Y005993D02*
X008622Y005993D01*
X008940Y005675D02*
X005986Y005675D01*
X005986Y005356D02*
X014660Y005356D01*
X014660Y005675D02*
X012164Y005675D01*
X012460Y005993D02*
X014660Y005993D01*
X014660Y006312D02*
X012493Y006312D01*
X012380Y006630D02*
X014660Y006630D01*
X014660Y006949D02*
X012091Y006949D01*
X011824Y007267D02*
X014660Y007267D01*
X014660Y007586D02*
X011556Y007586D01*
X011289Y007904D02*
X014660Y007904D01*
X014660Y008223D02*
X011021Y008223D01*
X010753Y008541D02*
X014630Y008541D01*
X014312Y008860D02*
X010486Y008860D01*
X010218Y009178D02*
X013993Y009178D01*
X013675Y009497D02*
X009955Y009497D01*
X009955Y009815D02*
X013356Y009815D01*
X013163Y010134D02*
X009955Y010134D01*
X009955Y010452D02*
X013160Y010452D01*
X013160Y010771D02*
X009682Y010771D01*
X008838Y010771D02*
X006639Y010771D01*
X006378Y011089D02*
X011581Y011089D01*
X011939Y011089D02*
X012581Y011089D01*
X012939Y011089D02*
X013160Y011089D01*
X014360Y011089D02*
X014431Y011089D01*
X014410Y011408D02*
X014360Y011408D01*
X014360Y010771D02*
X014651Y010771D01*
X014417Y010452D02*
X014969Y010452D01*
X014735Y010134D02*
X015288Y010134D01*
X015054Y009815D02*
X017307Y009815D01*
X017110Y009497D02*
X015372Y009497D01*
X015691Y009178D02*
X017094Y009178D01*
X017094Y008860D02*
X015860Y008860D01*
X015860Y008541D02*
X017145Y008541D01*
X017403Y008223D02*
X015860Y008223D01*
X015860Y007904D02*
X019660Y007904D01*
X019660Y007586D02*
X015860Y007586D01*
X015860Y007267D02*
X019660Y007267D01*
X019740Y006949D02*
X015860Y006949D01*
X015860Y006630D02*
X020041Y006630D01*
X020360Y006312D02*
X015860Y006312D01*
X015860Y005993D02*
X020678Y005993D01*
X020997Y005675D02*
X015860Y005675D01*
X015860Y005356D02*
X021315Y005356D01*
X020650Y004719D02*
X026565Y004719D01*
X026565Y004401D02*
X020968Y004401D01*
X021287Y004082D02*
X026695Y004082D01*
X026705Y003764D02*
X021605Y003764D01*
X021924Y003445D02*
X026782Y003445D01*
X027260Y003445D02*
X027260Y003445D01*
X027260Y003370D02*
X027260Y003886D01*
X027260Y003886D01*
X027260Y003370D01*
X027260Y003764D02*
X027260Y003764D01*
X027815Y003764D02*
X029065Y003764D01*
X029108Y003445D02*
X027738Y003445D01*
X029160Y003127D02*
X022242Y003127D01*
X022360Y002808D02*
X029160Y002808D01*
X029124Y002490D02*
X023137Y002490D01*
X023379Y002171D02*
X029124Y002171D01*
X029126Y001853D02*
X023426Y001853D01*
X023426Y001534D02*
X029264Y001534D01*
X029264Y001347D02*
X029264Y001085D01*
X029274Y001035D01*
X029293Y000987D01*
X029322Y000945D01*
X029358Y000908D01*
X029401Y000880D01*
X029448Y000860D01*
X029498Y000850D01*
X029760Y000850D01*
X030022Y000850D01*
X030072Y000860D01*
X030119Y000880D01*
X030162Y000908D01*
X030198Y000945D01*
X030227Y000987D01*
X030246Y001035D01*
X030256Y001085D01*
X030256Y001347D01*
X029760Y001347D01*
X029264Y001347D01*
X029264Y001216D02*
X023407Y001216D01*
X023205Y000897D02*
X029375Y000897D01*
X029760Y000897D02*
X029760Y000897D01*
X029760Y000850D02*
X029760Y001347D01*
X029760Y001347D01*
X029760Y000850D01*
X029760Y001216D02*
X029760Y001216D01*
X030256Y001216D02*
X032260Y001216D01*
X032260Y001534D02*
X030256Y001534D01*
X030394Y001853D02*
X032260Y001853D01*
X032260Y002171D02*
X030396Y002171D01*
X030396Y002490D02*
X032260Y002490D01*
X032260Y002808D02*
X030360Y002808D01*
X030360Y003127D02*
X032260Y003127D01*
X032260Y003445D02*
X030412Y003445D01*
X030455Y003764D02*
X032260Y003764D01*
X032260Y004082D02*
X030455Y004082D01*
X030455Y004401D02*
X032260Y004401D01*
X032260Y004719D02*
X030455Y004719D01*
X030427Y005038D02*
X032260Y005038D01*
X032260Y005356D02*
X027860Y005356D01*
X028023Y005675D02*
X032260Y005675D01*
X032260Y005993D02*
X028342Y005993D01*
X028660Y006312D02*
X031303Y006312D01*
X030735Y006630D02*
X030121Y006630D01*
X030093Y007904D02*
X031260Y007904D01*
X031515Y008223D02*
X027571Y008223D01*
X027890Y008541D02*
X032260Y008541D01*
X032260Y008223D02*
X032005Y008223D01*
X031760Y008223D02*
X031760Y008223D01*
X031760Y007904D02*
X031760Y007904D01*
X032260Y007904D02*
X032260Y007904D01*
X032260Y008860D02*
X028208Y008860D01*
X028527Y009178D02*
X032260Y009178D01*
X032260Y009497D02*
X028845Y009497D01*
X029164Y009815D02*
X032260Y009815D01*
X032260Y010134D02*
X029482Y010134D01*
X029801Y010452D02*
X032260Y010452D01*
X032260Y010771D02*
X030119Y010771D01*
X030438Y011089D02*
X032260Y011089D01*
X032260Y011408D02*
X030756Y011408D01*
X031075Y011726D02*
X032260Y011726D01*
X032351Y012045D02*
X031393Y012045D01*
X031712Y012363D02*
X032660Y012363D01*
X032660Y012682D02*
X032030Y012682D01*
X032349Y013000D02*
X032710Y013000D01*
X032667Y013319D02*
X032970Y013319D01*
X032858Y013637D02*
X033288Y013637D01*
X033408Y013956D02*
X032860Y013956D01*
X032860Y014274D02*
X033629Y014274D01*
X032860Y014593D02*
X038780Y014593D01*
X038780Y014911D02*
X032860Y014911D01*
X033019Y015230D02*
X038780Y015230D01*
X038780Y015548D02*
X033230Y015548D01*
X033260Y015867D02*
X038780Y015867D01*
X038780Y016185D02*
X033125Y016185D01*
X033211Y016504D02*
X038780Y016504D01*
X038780Y016822D02*
X033260Y016822D01*
X033160Y017141D02*
X038780Y017141D01*
X038780Y017459D02*
X033193Y017459D01*
X033260Y017778D02*
X038780Y017778D01*
X038780Y018096D02*
X033178Y018096D01*
X033175Y018415D02*
X038780Y018415D01*
X038780Y018733D02*
X033260Y018733D01*
X033197Y019052D02*
X038780Y019052D01*
X038780Y019370D02*
X033156Y019370D01*
X033260Y019689D02*
X038780Y019689D01*
X038780Y020007D02*
X033215Y020007D01*
X034674Y020326D02*
X038780Y020326D01*
X038780Y020644D02*
X034993Y020644D01*
X035311Y020963D02*
X038780Y020963D01*
X038780Y021281D02*
X035697Y021281D01*
X035705Y021600D02*
X038780Y021600D01*
X038780Y021918D02*
X035705Y021918D01*
X035705Y022237D02*
X038780Y022237D01*
X038780Y022555D02*
X035705Y022555D01*
X035637Y022874D02*
X038780Y022874D01*
X038780Y023192D02*
X035177Y023192D01*
X034858Y023511D02*
X038780Y023511D01*
X038780Y023829D02*
X034454Y023829D01*
X034011Y022660D02*
X033260Y022660D01*
X033260Y022621D01*
X033153Y022363D01*
X033050Y022260D01*
X033153Y022157D01*
X033260Y021899D01*
X033260Y021621D01*
X033153Y021363D01*
X033150Y021360D01*
X034011Y021360D01*
X034315Y021663D01*
X034315Y021971D01*
X034331Y022010D01*
X034315Y022049D01*
X034315Y022357D01*
X034011Y022660D01*
X034116Y022555D02*
X033233Y022555D01*
X033073Y022237D02*
X034315Y022237D01*
X034315Y021918D02*
X033252Y021918D01*
X033251Y021600D02*
X034251Y021600D01*
X032162Y023511D02*
X026794Y023511D01*
X026771Y023520D02*
X025749Y023520D01*
X025469Y023404D01*
X025256Y023191D01*
X025140Y022911D01*
X025140Y022609D01*
X025256Y022329D01*
X025325Y022260D01*
X025256Y022191D01*
X025140Y021911D01*
X025140Y021609D01*
X025256Y021329D01*
X025325Y021260D01*
X025256Y021191D01*
X025140Y020911D01*
X025140Y020609D01*
X025256Y020329D01*
X025325Y020260D01*
X025256Y020191D01*
X025140Y019911D01*
X025140Y019609D01*
X025256Y019329D01*
X025325Y019260D01*
X025256Y019191D01*
X025140Y018911D01*
X025140Y018609D01*
X025256Y018329D01*
X025325Y018260D01*
X025256Y018191D01*
X025140Y017911D01*
X025140Y017609D01*
X025256Y017329D01*
X025325Y017260D01*
X025256Y017191D01*
X025140Y016911D01*
X025140Y016609D01*
X025256Y016329D01*
X025325Y016260D01*
X025256Y016191D01*
X025140Y015911D01*
X025140Y015609D01*
X025256Y015329D01*
X025469Y015116D01*
X025749Y015000D01*
X026771Y015000D01*
X027051Y015116D01*
X027075Y015140D01*
X029128Y015140D01*
X029321Y015060D01*
X030199Y015060D01*
X030457Y015167D01*
X030653Y015363D01*
X030760Y015621D01*
X030760Y015899D01*
X030653Y016157D01*
X030550Y016260D01*
X030653Y016363D01*
X030760Y016621D01*
X030760Y016899D01*
X030653Y017157D01*
X030550Y017260D01*
X030653Y017363D01*
X030760Y017621D01*
X030760Y017899D01*
X030653Y018157D01*
X030550Y018260D01*
X030653Y018363D01*
X030760Y018621D01*
X030760Y018899D01*
X030653Y019157D01*
X030550Y019260D01*
X030653Y019363D01*
X030760Y019621D01*
X030760Y019899D01*
X030653Y020157D01*
X030550Y020260D01*
X030653Y020363D01*
X030760Y020621D01*
X030760Y020899D01*
X030653Y021157D01*
X030550Y021260D01*
X030653Y021363D01*
X030760Y021621D01*
X030760Y021899D01*
X030653Y022157D01*
X030550Y022260D01*
X030653Y022363D01*
X030760Y022621D01*
X030760Y022899D01*
X030653Y023157D01*
X030457Y023353D01*
X030199Y023460D01*
X029321Y023460D01*
X029079Y023360D01*
X027095Y023360D01*
X027051Y023404D01*
X026771Y023520D01*
X025726Y023511D02*
X017794Y023511D01*
X018263Y023192D02*
X025257Y023192D01*
X025140Y022874D02*
X018380Y022874D01*
X018358Y022555D02*
X025162Y022555D01*
X025302Y022237D02*
X018218Y022237D01*
X018377Y021918D02*
X025143Y021918D01*
X025144Y021600D02*
X018376Y021600D01*
X018216Y021281D02*
X025304Y021281D01*
X025161Y020963D02*
X018359Y020963D01*
X018380Y020644D02*
X025140Y020644D01*
X025260Y020326D02*
X018260Y020326D01*
X018340Y020007D02*
X025180Y020007D01*
X025140Y019689D02*
X018380Y019689D01*
X018281Y019370D02*
X025239Y019370D01*
X025198Y019052D02*
X018322Y019052D01*
X018380Y018733D02*
X025140Y018733D01*
X025220Y018415D02*
X018300Y018415D01*
X018303Y018096D02*
X025217Y018096D01*
X025140Y017778D02*
X018380Y017778D01*
X018318Y017459D02*
X025202Y017459D01*
X025235Y017141D02*
X018285Y017141D01*
X018380Y016822D02*
X025140Y016822D01*
X025184Y016504D02*
X018336Y016504D01*
X018267Y016185D02*
X025253Y016185D01*
X025140Y015867D02*
X018380Y015867D01*
X018355Y015548D02*
X025165Y015548D01*
X025356Y015230D02*
X018164Y015230D01*
X016163Y013956D02*
X028061Y013956D01*
X028059Y013949D02*
X028059Y013571D01*
X028204Y013221D01*
X028471Y012954D01*
X028821Y012809D01*
X029199Y012809D01*
X029549Y012954D01*
X029816Y013221D01*
X029961Y013571D01*
X029961Y013949D01*
X029816Y014299D01*
X029549Y014566D01*
X029199Y014711D01*
X028821Y014711D01*
X028471Y014566D01*
X028204Y014299D01*
X028059Y013949D01*
X028059Y013637D02*
X025982Y013637D01*
X026300Y013319D02*
X028163Y013319D01*
X028425Y013000D02*
X026619Y013000D01*
X026937Y012682D02*
X030333Y012682D01*
X030651Y013000D02*
X029595Y013000D01*
X029857Y013319D02*
X030970Y013319D01*
X031288Y013637D02*
X029961Y013637D01*
X029959Y013956D02*
X031607Y013956D01*
X031660Y014274D02*
X029827Y014274D01*
X029486Y014593D02*
X031660Y014593D01*
X031660Y014911D02*
X015208Y014911D01*
X015526Y014593D02*
X028534Y014593D01*
X028193Y014274D02*
X015845Y014274D01*
X015610Y012811D02*
X015670Y012751D01*
X015891Y012660D01*
X025261Y012660D01*
X026527Y011395D01*
X026393Y011450D01*
X026127Y011450D01*
X025880Y011348D01*
X025760Y011228D01*
X025640Y011348D01*
X025393Y011450D01*
X025127Y011450D01*
X024880Y011348D01*
X024692Y011160D01*
X024671Y011110D01*
X016009Y011110D01*
X015610Y011509D01*
X015610Y012811D01*
X015610Y012682D02*
X015839Y012682D01*
X015610Y012363D02*
X025558Y012363D01*
X025877Y012045D02*
X015610Y012045D01*
X015610Y011726D02*
X026195Y011726D01*
X026024Y011408D02*
X025496Y011408D01*
X025024Y011408D02*
X015711Y011408D01*
X014410Y012462D02*
X014375Y012547D01*
X014410Y012511D01*
X014410Y012462D01*
X014027Y012895D02*
X013761Y013160D01*
X013209Y013160D01*
X013269Y013100D01*
X013360Y012879D01*
X013360Y012828D01*
X013380Y012848D01*
X013627Y012950D01*
X013893Y012950D01*
X014027Y012895D01*
X013921Y013000D02*
X013310Y013000D01*
X011311Y013860D02*
X010185Y013860D01*
X007705Y016339D01*
X007705Y016521D01*
X007689Y016560D01*
X007705Y016599D01*
X007705Y017269D01*
X007644Y017417D01*
X007532Y017529D01*
X007385Y017590D01*
X006635Y017590D01*
X006500Y017534D01*
X005020Y017534D01*
X004885Y017590D01*
X004135Y017590D01*
X004000Y017534D01*
X003106Y017534D01*
X003000Y017640D01*
X002489Y017640D01*
X002509Y017660D01*
X007511Y017660D01*
X011251Y013920D01*
X011311Y013860D01*
X011251Y013920D02*
X011251Y013920D01*
X011216Y013956D02*
X010089Y013956D01*
X009770Y014274D02*
X010897Y014274D01*
X010579Y014593D02*
X009452Y014593D01*
X009133Y014911D02*
X010260Y014911D01*
X009942Y015230D02*
X008815Y015230D01*
X008496Y015548D02*
X009623Y015548D01*
X009305Y015867D02*
X008178Y015867D01*
X007859Y016185D02*
X008986Y016185D01*
X008668Y016504D02*
X007705Y016504D01*
X007705Y016822D02*
X008349Y016822D01*
X008031Y017141D02*
X007705Y017141D01*
X007712Y017459D02*
X007602Y017459D01*
X008454Y018415D02*
X010845Y018415D01*
X010842Y018096D02*
X008773Y018096D01*
X009091Y017778D02*
X010760Y017778D01*
X010827Y017459D02*
X009410Y017459D01*
X009728Y017141D02*
X011049Y017141D01*
X010903Y016822D02*
X010047Y016822D01*
X010365Y016504D02*
X010962Y016504D01*
X010895Y016185D02*
X010684Y016185D01*
X011809Y015060D02*
X012009Y014860D01*
X012311Y014860D01*
X012111Y015060D01*
X011809Y015060D01*
X011958Y014911D02*
X012260Y014911D01*
X012684Y016185D02*
X012895Y016185D01*
X012809Y016504D02*
X012558Y016504D01*
X012617Y016822D02*
X012760Y016822D01*
X012860Y017141D02*
X012471Y017141D01*
X012693Y017459D02*
X012827Y017459D01*
X012760Y017778D02*
X012760Y017778D01*
X012678Y018096D02*
X012842Y018096D01*
X012845Y018415D02*
X012675Y018415D01*
X012760Y018733D02*
X012760Y018733D01*
X012697Y019052D02*
X012823Y019052D01*
X012864Y019370D02*
X012656Y019370D01*
X012760Y019689D02*
X012760Y019689D01*
X012715Y020007D02*
X012805Y020007D01*
X012905Y020326D02*
X012615Y020326D01*
X012760Y020644D02*
X012760Y020644D01*
X012734Y020963D02*
X012786Y020963D01*
X012949Y021281D02*
X012571Y021281D01*
X012751Y021600D02*
X012769Y021600D01*
X012752Y021918D02*
X012768Y021918D01*
X012947Y022237D02*
X012573Y022237D01*
X012733Y022555D02*
X012787Y022555D01*
X012760Y022874D02*
X012760Y022874D01*
X012618Y023192D02*
X012902Y023192D01*
X010870Y022160D02*
X010867Y022157D01*
X010760Y021899D01*
X010760Y021621D01*
X010867Y021363D01*
X010870Y021360D01*
X007509Y021360D01*
X006769Y022100D01*
X006600Y022269D01*
X006379Y022360D01*
X004509Y022360D01*
X004154Y022715D01*
X004216Y022705D01*
X004260Y022705D01*
X004304Y022705D01*
X004390Y022718D01*
X004473Y022745D01*
X004551Y022785D01*
X004593Y022816D01*
X004626Y022738D01*
X004738Y022626D01*
X004885Y022565D01*
X005635Y022565D01*
X005782Y022626D01*
X005816Y022660D01*
X008511Y022660D01*
X008751Y022420D01*
X008920Y022251D01*
X009141Y022160D01*
X010870Y022160D01*
X010768Y021918D02*
X006951Y021918D01*
X007269Y021600D02*
X010769Y021600D01*
X008956Y022237D02*
X006632Y022237D01*
X008616Y022555D02*
X004314Y022555D01*
X004260Y022705D02*
X004260Y023260D01*
X004260Y023260D01*
X004260Y022705D01*
X004260Y022874D02*
X004260Y022874D01*
X004260Y023192D02*
X004260Y023192D01*
X004260Y023511D02*
X004260Y023511D01*
X004673Y023829D02*
X003674Y023829D01*
X002846Y023829D02*
X002674Y023829D01*
X001846Y023829D02*
X000740Y023829D01*
X000740Y024148D02*
X038780Y024148D01*
X038780Y024466D02*
X000740Y024466D01*
X000740Y024785D02*
X038780Y024785D01*
X038780Y025103D02*
X000740Y025103D01*
X000740Y025422D02*
X038780Y025422D01*
X038780Y025740D02*
X000740Y025740D01*
X001904Y026059D02*
X037616Y026059D01*
X037389Y026377D02*
X002131Y026377D01*
X002211Y026696D02*
X037309Y026696D01*
X037336Y027014D02*
X002184Y027014D01*
X001611Y023511D02*
X000740Y023511D01*
X000740Y023192D02*
X001565Y023192D01*
X001660Y022874D02*
X000740Y022874D01*
X000740Y022555D02*
X001660Y022555D01*
X001660Y022237D02*
X000740Y022237D01*
X000740Y021918D02*
X001660Y021918D01*
X001677Y021600D02*
X000740Y021600D01*
X000740Y021281D02*
X001890Y021281D01*
X002209Y020963D02*
X000740Y020963D01*
X000740Y020644D02*
X002527Y020644D01*
X002846Y020326D02*
X000740Y020326D01*
X000740Y020007D02*
X003790Y020007D01*
X003769Y019689D02*
X000740Y019689D01*
X000740Y019370D02*
X003849Y019370D01*
X004068Y019052D02*
X000740Y019052D01*
X000740Y018733D02*
X001884Y018733D01*
X001566Y018415D02*
X000740Y018415D01*
X000740Y018096D02*
X001250Y018096D01*
X001160Y017778D02*
X000740Y017778D01*
X000740Y017459D02*
X001160Y017459D01*
X001160Y017141D02*
X000740Y017141D01*
X000740Y016822D02*
X001160Y016822D01*
X001160Y016504D02*
X000740Y016504D01*
X000740Y016185D02*
X001160Y016185D01*
X001160Y015867D02*
X000740Y015867D01*
X000740Y015548D02*
X001197Y015548D01*
X001419Y015230D02*
X000740Y015230D01*
X000740Y014911D02*
X001681Y014911D01*
X001943Y014593D02*
X000740Y014593D01*
X000740Y014274D02*
X002205Y014274D01*
X002467Y013956D02*
X000740Y013956D01*
X000740Y013637D02*
X002729Y013637D01*
X002991Y013319D02*
X000740Y013319D01*
X000740Y013000D02*
X003253Y013000D01*
X003515Y012682D02*
X000740Y012682D01*
X000740Y012363D02*
X003776Y012363D01*
X004038Y012045D02*
X000740Y012045D01*
X000740Y011726D02*
X004300Y011726D01*
X004562Y011408D02*
X000740Y011408D01*
X000740Y011089D02*
X004824Y011089D01*
X005086Y010771D02*
X000740Y010771D01*
X000740Y010452D02*
X005348Y010452D01*
X005610Y010134D02*
X000740Y010134D01*
X000740Y009815D02*
X005869Y009815D01*
X006116Y011408D02*
X011173Y011408D01*
X011090Y011726D02*
X005854Y011726D01*
X005592Y012045D02*
X011090Y012045D01*
X011090Y012363D02*
X005330Y012363D01*
X005068Y012682D02*
X009765Y012682D01*
X009347Y013000D02*
X006345Y013000D01*
X006299Y012954D02*
X005949Y012809D01*
X005571Y012809D01*
X005221Y012954D01*
X004954Y013221D01*
X004809Y013571D01*
X004809Y013949D01*
X004954Y014299D01*
X005221Y014566D01*
X005571Y014711D01*
X005949Y014711D01*
X006299Y014566D01*
X006566Y014299D01*
X006711Y013949D01*
X006711Y013571D01*
X006566Y013221D01*
X006299Y012954D01*
X006607Y013319D02*
X009029Y013319D01*
X008710Y013637D02*
X006711Y013637D01*
X006709Y013956D02*
X008392Y013956D01*
X008073Y014274D02*
X006577Y014274D01*
X006236Y014593D02*
X007755Y014593D01*
X007436Y014911D02*
X003235Y014911D01*
X003497Y014593D02*
X005284Y014593D01*
X004943Y014274D02*
X003759Y014274D01*
X004021Y013956D02*
X004811Y013956D01*
X004809Y013637D02*
X004282Y013637D01*
X004544Y013319D02*
X004913Y013319D01*
X004806Y013000D02*
X005175Y013000D01*
X007118Y015230D02*
X002973Y015230D01*
X002711Y015548D02*
X006592Y015548D01*
X006315Y015867D02*
X005058Y015867D01*
X005065Y016185D02*
X006315Y016185D01*
X004510Y016186D02*
X004510Y015670D01*
X004510Y016186D01*
X004510Y016186D01*
X004510Y016185D02*
X004510Y016185D01*
X004510Y015867D02*
X004510Y015867D01*
X003962Y015867D02*
X002449Y015867D01*
X002360Y016185D02*
X003955Y016185D01*
X005452Y019052D02*
X010823Y019052D01*
X010760Y018733D02*
X008136Y018733D01*
X006301Y019370D02*
X005671Y019370D01*
X005751Y019689D02*
X005983Y019689D01*
X003811Y021360D02*
X003509Y021360D01*
X002860Y022009D01*
X002860Y022311D01*
X002920Y022251D01*
X003811Y021360D01*
X003572Y021600D02*
X003269Y021600D01*
X003253Y021918D02*
X002951Y021918D01*
X002935Y022237D02*
X002860Y022237D01*
X008751Y022420D02*
X008751Y022420D01*
X009358Y023511D02*
X016726Y023511D01*
X008954Y023829D02*
X032566Y023829D01*
X031402Y023192D02*
X030618Y023192D01*
X030760Y022874D02*
X031260Y022874D01*
X031287Y022555D02*
X030733Y022555D01*
X030573Y022237D02*
X031447Y022237D01*
X031268Y021918D02*
X030752Y021918D01*
X030751Y021600D02*
X031269Y021600D01*
X031449Y021281D02*
X030571Y021281D01*
X030734Y020963D02*
X031286Y020963D01*
X031260Y020644D02*
X030760Y020644D01*
X030615Y020326D02*
X031405Y020326D01*
X031305Y020007D02*
X030715Y020007D01*
X030760Y019689D02*
X031260Y019689D01*
X031364Y019370D02*
X030656Y019370D01*
X030697Y019052D02*
X031323Y019052D01*
X031260Y018733D02*
X030760Y018733D01*
X030675Y018415D02*
X031345Y018415D01*
X031342Y018096D02*
X030678Y018096D01*
X030760Y017778D02*
X031260Y017778D01*
X031327Y017459D02*
X030693Y017459D01*
X030660Y017141D02*
X031360Y017141D01*
X031260Y016822D02*
X030760Y016822D01*
X030711Y016504D02*
X031309Y016504D01*
X031395Y016185D02*
X030625Y016185D01*
X030760Y015867D02*
X031260Y015867D01*
X031290Y015548D02*
X030730Y015548D01*
X030519Y015230D02*
X031501Y015230D01*
X034349Y013000D02*
X037171Y013000D01*
X037490Y012682D02*
X034030Y012682D01*
X033860Y012363D02*
X037660Y012363D01*
X038550Y013319D02*
X038780Y013319D01*
X038780Y013637D02*
X038232Y013637D01*
X038112Y013956D02*
X038780Y013956D01*
X038780Y014274D02*
X037891Y014274D01*
X036629Y014274D02*
X034891Y014274D01*
X035112Y013956D02*
X036408Y013956D01*
X036380Y013637D02*
X035140Y013637D01*
X034964Y013319D02*
X036556Y013319D01*
X030014Y012363D02*
X027256Y012363D01*
X027574Y012045D02*
X029696Y012045D01*
X029377Y011726D02*
X027820Y011726D01*
X027860Y011408D02*
X029059Y011408D01*
X028740Y011089D02*
X027860Y011089D01*
X027930Y010771D02*
X028422Y010771D01*
X028103Y010452D02*
X027930Y010452D01*
X027221Y009570D02*
X026860Y009209D01*
X026860Y009379D01*
X026860Y009692D01*
X026880Y009672D01*
X027127Y009570D01*
X027221Y009570D01*
X027148Y009497D02*
X026860Y009497D01*
X025660Y009509D02*
X025011Y008860D01*
X025001Y008860D01*
X024993Y008880D01*
X024880Y008993D01*
X024733Y009054D01*
X023815Y009054D01*
X023426Y009443D01*
X023426Y009459D01*
X023324Y009704D01*
X023137Y009891D01*
X023091Y009910D01*
X024625Y009910D01*
X024715Y009819D01*
X024746Y009807D01*
X024880Y009672D01*
X025127Y009570D01*
X025393Y009570D01*
X025640Y009672D01*
X025660Y009692D01*
X025660Y009509D01*
X025648Y009497D02*
X023410Y009497D01*
X023691Y009178D02*
X025329Y009178D01*
X024725Y009815D02*
X023213Y009815D01*
X022429Y009910D02*
X022383Y009891D01*
X022260Y009768D01*
X022137Y009891D01*
X022091Y009910D01*
X022429Y009910D01*
X022307Y009815D02*
X022213Y009815D01*
X021429Y009910D02*
X021383Y009891D01*
X021196Y009704D01*
X021094Y009459D01*
X021094Y008663D01*
X021196Y008418D01*
X021383Y008231D01*
X021628Y008129D01*
X021892Y008129D01*
X022137Y008231D01*
X022260Y008354D01*
X022383Y008231D01*
X022628Y008129D01*
X022892Y008129D01*
X022998Y008173D01*
X023420Y007751D01*
X023494Y007721D01*
X023527Y007640D01*
X023640Y007527D01*
X023787Y007466D01*
X024733Y007466D01*
X024880Y007527D01*
X024993Y007640D01*
X025001Y007660D01*
X025311Y007660D01*
X024011Y006360D01*
X022009Y006360D01*
X020860Y007509D01*
X020860Y009511D01*
X021259Y009910D01*
X021429Y009910D01*
X021307Y009815D02*
X021164Y009815D01*
X021110Y009497D02*
X020860Y009497D01*
X020860Y009178D02*
X021094Y009178D01*
X021094Y008860D02*
X020860Y008860D01*
X020860Y008541D02*
X021145Y008541D01*
X021403Y008223D02*
X020860Y008223D01*
X020860Y007904D02*
X023267Y007904D01*
X023581Y007586D02*
X020860Y007586D01*
X021102Y007267D02*
X024918Y007267D01*
X024600Y006949D02*
X021420Y006949D01*
X021739Y006630D02*
X024281Y006630D01*
X025023Y005675D02*
X026560Y005675D01*
X026560Y005993D02*
X025342Y005993D01*
X025660Y006312D02*
X026822Y006312D01*
X027281Y006630D02*
X025979Y006630D01*
X026297Y006949D02*
X027600Y006949D01*
X027918Y007267D02*
X026616Y007267D01*
X026934Y007586D02*
X028230Y007586D01*
X028427Y007904D02*
X027253Y007904D01*
X025237Y007586D02*
X024939Y007586D01*
X022403Y008223D02*
X022117Y008223D01*
X019660Y008223D02*
X018117Y008223D01*
X018760Y008541D02*
X018760Y008541D01*
X018760Y008860D02*
X018760Y008860D01*
X018760Y009061D02*
X018760Y009061D01*
X018760Y009178D02*
X018760Y009178D01*
X018760Y009497D02*
X018760Y009497D01*
X019258Y009497D02*
X019660Y009497D01*
X019660Y009178D02*
X019286Y009178D01*
X019286Y008860D02*
X019660Y008860D01*
X019660Y008541D02*
X019221Y008541D01*
X018958Y009815D02*
X019660Y009815D01*
X018760Y009815D02*
X018760Y009815D01*
X018562Y009815D02*
X018213Y009815D01*
X024705Y005356D02*
X026660Y005356D01*
X026593Y005038D02*
X015860Y005038D01*
X014660Y005038D02*
X005955Y005038D01*
X005955Y004719D02*
X011574Y004719D01*
X011385Y004401D02*
X005955Y004401D01*
X005955Y004082D02*
X011401Y004082D01*
X011611Y003764D02*
X005860Y003764D01*
X005860Y003445D02*
X011660Y003445D01*
X011660Y003127D02*
X005860Y003127D01*
X005743Y002808D02*
X008657Y002808D01*
X008664Y002819D02*
X008636Y002777D01*
X008616Y002730D01*
X008606Y002679D01*
X008606Y002297D01*
X009223Y002297D01*
X009223Y002914D01*
X008841Y002914D01*
X008790Y002904D01*
X008743Y002884D01*
X008701Y002856D01*
X008664Y002819D01*
X008606Y002490D02*
X005425Y002490D01*
X005106Y002171D02*
X008606Y002171D01*
X008606Y002223D02*
X008606Y001841D01*
X008616Y001790D01*
X008636Y001743D01*
X008664Y001701D01*
X008701Y001664D01*
X008743Y001636D01*
X008790Y001616D01*
X008841Y001606D01*
X009223Y001606D01*
X009223Y002223D01*
X009297Y002223D01*
X009297Y002297D01*
X009223Y002297D01*
X009223Y002223D01*
X008606Y002223D01*
X008606Y001853D02*
X004894Y001853D01*
X004756Y001534D02*
X011560Y001534D01*
X011560Y001853D02*
X009914Y001853D01*
X009914Y001841D02*
X009914Y002223D01*
X009297Y002223D01*
X009297Y001606D01*
X009679Y001606D01*
X009730Y001616D01*
X009777Y001636D01*
X009819Y001664D01*
X009856Y001701D01*
X009884Y001743D01*
X009904Y001790D01*
X009914Y001841D01*
X009914Y002171D02*
X011590Y002171D01*
X011660Y002490D02*
X009914Y002490D01*
X009914Y002679D02*
X009914Y002297D01*
X009297Y002297D01*
X009297Y002914D01*
X009679Y002914D01*
X009730Y002904D01*
X009777Y002884D01*
X009819Y002856D01*
X009856Y002819D01*
X009884Y002777D01*
X009904Y002730D01*
X009914Y002679D01*
X009863Y002808D02*
X011660Y002808D01*
X012860Y002808D02*
X020863Y002808D01*
X020545Y003127D02*
X012860Y003127D01*
X012860Y003445D02*
X020226Y003445D01*
X021160Y002490D02*
X013443Y002490D01*
X013260Y002490D02*
X013260Y002490D01*
X013077Y002490D02*
X012860Y002490D01*
X013260Y002171D02*
X013260Y002171D01*
X013260Y001853D02*
X013260Y001853D01*
X013260Y001534D02*
X013260Y001534D01*
X013260Y001216D02*
X013260Y001216D01*
X013260Y000897D02*
X013260Y000897D01*
X013575Y000897D02*
X017587Y000897D01*
X017558Y000906D02*
X017637Y000881D01*
X017719Y000868D01*
X017760Y000868D01*
X017801Y000868D01*
X017883Y000881D01*
X017962Y000906D01*
X018036Y000944D01*
X018103Y000992D01*
X018161Y001051D01*
X018210Y001118D01*
X018247Y001192D01*
X018260Y001231D01*
X018273Y001192D01*
X018310Y001118D01*
X018359Y001051D01*
X018417Y000992D01*
X018484Y000944D01*
X018558Y000906D01*
X018637Y000881D01*
X018719Y000868D01*
X018760Y000868D01*
X018801Y000868D01*
X018883Y000881D01*
X018962Y000906D01*
X019036Y000944D01*
X019103Y000992D01*
X019161Y001051D01*
X019210Y001118D01*
X019247Y001192D01*
X019273Y001270D01*
X019286Y001352D01*
X019286Y001659D01*
X018760Y001659D01*
X018760Y000868D01*
X018760Y001659D01*
X018760Y001659D01*
X018760Y001659D01*
X018234Y001659D01*
X017760Y001659D01*
X017760Y000868D01*
X017760Y001659D01*
X017760Y001659D01*
X017234Y001659D01*
X017234Y001352D01*
X017247Y001270D01*
X017273Y001192D01*
X017310Y001118D01*
X017359Y001051D01*
X017417Y000992D01*
X017484Y000944D01*
X017558Y000906D01*
X017760Y000897D02*
X017760Y000897D01*
X017933Y000897D02*
X018587Y000897D01*
X018760Y000897D02*
X018760Y000897D01*
X018933Y000897D02*
X021315Y000897D01*
X021113Y001216D02*
X019255Y001216D01*
X019286Y001534D02*
X021094Y001534D01*
X021094Y001853D02*
X019286Y001853D01*
X019286Y001966D02*
X019286Y001659D01*
X018760Y001659D01*
X018760Y001659D01*
X017760Y001659D01*
X017760Y001659D01*
X017760Y001659D01*
X017234Y001659D01*
X017234Y001966D01*
X017247Y002048D01*
X017273Y002127D01*
X017310Y002201D01*
X017359Y002267D01*
X017417Y002326D01*
X017484Y002375D01*
X017558Y002412D01*
X017637Y002438D01*
X017719Y002451D01*
X017760Y002451D01*
X017760Y001659D01*
X017760Y001659D01*
X017760Y002451D01*
X017801Y002451D01*
X017883Y002438D01*
X017962Y002412D01*
X018036Y002375D01*
X018103Y002326D01*
X018161Y002267D01*
X018210Y002201D01*
X018247Y002127D01*
X018260Y002087D01*
X018273Y002127D01*
X018310Y002201D01*
X018359Y002267D01*
X018417Y002326D01*
X018484Y002375D01*
X018558Y002412D01*
X018637Y002438D01*
X018719Y002451D01*
X018760Y002451D01*
X018760Y001659D01*
X018760Y001659D01*
X018760Y002451D01*
X018801Y002451D01*
X018883Y002438D01*
X018962Y002412D01*
X019036Y002375D01*
X019103Y002326D01*
X019161Y002267D01*
X019210Y002201D01*
X019247Y002127D01*
X019273Y002048D01*
X019286Y001966D01*
X019225Y002171D02*
X021141Y002171D01*
X022360Y002490D02*
X022383Y002490D01*
X022260Y000952D02*
X022383Y000829D01*
X022598Y000740D01*
X021922Y000740D01*
X022137Y000829D01*
X022260Y000952D01*
X022205Y000897D02*
X022315Y000897D01*
X018760Y001216D02*
X018760Y001216D01*
X018760Y001534D02*
X018760Y001534D01*
X018760Y001853D02*
X018760Y001853D01*
X018760Y002171D02*
X018760Y002171D01*
X018295Y002171D02*
X018225Y002171D01*
X017760Y002171D02*
X017760Y002171D01*
X017760Y001853D02*
X017760Y001853D01*
X017760Y001534D02*
X017760Y001534D01*
X017760Y001216D02*
X017760Y001216D01*
X017265Y001216D02*
X013802Y001216D01*
X013820Y001534D02*
X017234Y001534D01*
X017234Y001853D02*
X013820Y001853D01*
X013780Y002171D02*
X017295Y002171D01*
X018255Y001216D02*
X018265Y001216D01*
X014611Y003764D02*
X012909Y003764D01*
X013119Y004082D02*
X014401Y004082D01*
X014385Y004401D02*
X013135Y004401D01*
X012946Y004719D02*
X014574Y004719D01*
X010524Y006949D02*
X009656Y006949D01*
X009760Y007267D02*
X010256Y007267D01*
X009989Y007586D02*
X009642Y007586D01*
X009721Y007904D02*
X000740Y007904D01*
X000740Y007586D02*
X008878Y007586D01*
X009260Y007586D02*
X009260Y007586D01*
X009260Y007267D02*
X009260Y007267D01*
X009454Y008223D02*
X000740Y008223D01*
X000740Y008541D02*
X009186Y008541D01*
X008670Y008860D02*
X000740Y008860D01*
X000740Y009178D02*
X008565Y009178D01*
X008565Y009497D02*
X000740Y009497D01*
X009223Y002808D02*
X009297Y002808D01*
X009297Y002490D02*
X009223Y002490D01*
X009223Y002171D02*
X009297Y002171D01*
X009297Y001853D02*
X009223Y001853D01*
X011562Y001216D02*
X004756Y001216D01*
X004645Y000897D02*
X011733Y000897D01*
X012787Y000897D02*
X012945Y000897D01*
X004260Y000897D02*
X004260Y000897D01*
X004260Y000850D02*
X004260Y001347D01*
X004260Y001347D01*
X004260Y000850D01*
X004260Y001216D02*
X004260Y001216D01*
X003875Y000897D02*
X002139Y000897D01*
X026496Y011408D02*
X026514Y011408D01*
X030145Y000897D02*
X032260Y000897D01*
D26*
X029760Y002173D02*
X029760Y003886D01*
X029760Y004634D02*
X027260Y004634D01*
X027260Y005760D01*
X028760Y007260D01*
X028886Y007260D01*
X029634Y007260D02*
X031010Y007260D01*
X031760Y006760D02*
X032260Y006760D01*
X033260Y007760D01*
X033260Y010291D01*
X033260Y010473D02*
X033260Y012760D01*
X034260Y013760D01*
X032260Y013760D02*
X024260Y005760D01*
X021760Y005760D01*
X020260Y007260D01*
X020260Y009760D01*
X021010Y010510D01*
X015760Y010510D01*
X015010Y011260D01*
X015010Y012760D01*
X014010Y013760D01*
X013260Y013760D01*
X012760Y014260D01*
X011760Y014260D01*
X007760Y018260D01*
X002260Y018260D01*
X001760Y017760D01*
X001760Y015760D01*
X006386Y010134D01*
X009260Y010134D01*
X009260Y009386D02*
X011886Y006260D01*
X011760Y006260D02*
X009260Y006260D01*
X008510Y006760D02*
X006134Y006760D01*
X005386Y006760D02*
X005386Y005260D01*
X005260Y005134D02*
X003760Y005134D01*
X002134Y005134D01*
X001760Y004760D01*
X005260Y004386D02*
X005260Y003173D01*
X004260Y002173D01*
X012260Y001660D02*
X012260Y004260D01*
X015260Y004260D02*
X020260Y004260D01*
X021760Y002760D01*
X021760Y001659D01*
X015260Y004260D02*
X015260Y008760D01*
X013760Y010260D01*
X013760Y012010D01*
X012760Y012010D02*
X012760Y012760D01*
X012260Y013260D01*
X009936Y013260D01*
X007010Y016186D01*
X007010Y016934D02*
X004510Y016934D01*
X002716Y016934D01*
X005760Y020760D02*
X006760Y019760D01*
X011760Y019760D01*
X011760Y020760D02*
X007260Y020760D01*
X006260Y021760D01*
X004260Y021760D01*
X003260Y022760D01*
X003260Y023260D01*
X002260Y023260D02*
X002260Y021760D01*
X003260Y020760D01*
X005760Y020760D01*
X005260Y023260D02*
X008760Y023260D01*
X009260Y022760D01*
X011760Y022760D01*
X013760Y022760D02*
X017260Y022760D01*
X017180Y021770D02*
X013760Y021770D01*
X013760Y020780D02*
X017180Y020780D01*
X017180Y019790D02*
X013760Y019790D01*
X013760Y018800D02*
X017180Y018800D01*
X017180Y017810D02*
X013760Y017810D01*
X013760Y016820D02*
X017180Y016820D01*
X017180Y015740D02*
X013760Y015740D01*
X013260Y014760D02*
X012260Y015760D01*
X011760Y015760D01*
X013260Y014760D02*
X014510Y014760D01*
X016010Y013260D01*
X025510Y013260D01*
X027260Y011510D01*
X027260Y010510D01*
X026260Y010510D02*
X026260Y009260D01*
X025260Y008260D01*
X024260Y008260D01*
X023760Y008260D02*
X022959Y009061D01*
X022760Y009061D02*
X021760Y009061D01*
X021010Y010510D02*
X025260Y010510D01*
X032260Y013760D02*
X032260Y015760D01*
X029690Y015740D02*
X026270Y015740D01*
X026270Y016820D02*
X029690Y016820D01*
X029690Y017810D02*
X026270Y017810D01*
X026270Y018800D02*
X029690Y018800D01*
X029690Y019790D02*
X026270Y019790D01*
X026270Y020780D02*
X029690Y020780D01*
X029690Y021770D02*
X026270Y021770D01*
X026260Y022760D02*
X029760Y022760D01*
X032260Y022760D02*
X032760Y023260D01*
X034260Y023260D01*
X035010Y022510D01*
X035010Y021510D02*
X034260Y020760D01*
X032260Y020760D01*
X037260Y013760D02*
X038260Y012760D01*
X038260Y010567D01*
X038075Y010382D01*
D27*
X033351Y010382D02*
X033260Y010291D01*
X033351Y010382D02*
X033260Y010473D01*
X025260Y010510D02*
X025010Y010260D01*
X022959Y009061D02*
X022760Y009061D01*
X023760Y008260D02*
X024260Y008260D01*
X022760Y001659D02*
X021760Y001659D01*
X011886Y006260D02*
X011760Y006260D01*
X005386Y005260D02*
X005260Y005134D01*
X002716Y016934D02*
X002710Y016940D01*
X035010Y021510D02*
X035010Y021636D01*
X035010Y022384D02*
X035010Y022510D01*
D28*
X035713Y011169D02*
X035760Y011169D01*
X035760Y005260D01*
X034260Y003760D01*
X034260Y002010D01*
X036260Y002010D02*
X038075Y003825D01*
X038075Y005658D01*
D29*
X029760Y015760D02*
X029690Y015740D01*
X029760Y016760D02*
X029690Y016820D01*
X029760Y017760D02*
X029690Y017810D01*
X029760Y018760D02*
X029690Y018800D01*
X029760Y019760D02*
X029690Y019790D01*
X029760Y020760D02*
X029690Y020780D01*
X029760Y021760D02*
X029690Y021770D01*
X026270Y021770D02*
X026260Y021760D01*
X026270Y020780D02*
X026260Y020760D01*
X026270Y019790D02*
X026260Y019760D01*
X026270Y018800D02*
X026260Y018760D01*
X026270Y017810D02*
X026260Y017760D01*
X026270Y016820D02*
X026260Y016760D01*
X026260Y015760D02*
X026270Y015740D01*
X017260Y015760D02*
X017180Y015740D01*
X017260Y016760D02*
X017180Y016820D01*
X017260Y017760D02*
X017180Y017810D01*
X017260Y018760D02*
X017180Y018800D01*
X017260Y019760D02*
X017180Y019790D01*
X017260Y020760D02*
X017180Y020780D01*
X017260Y021760D02*
X017180Y021770D01*
X013760Y021770D02*
X013760Y021760D01*
X013760Y020780D02*
X013760Y020760D01*
X013760Y019790D02*
X013760Y019760D01*
X013760Y018800D02*
X013760Y018760D01*
X013760Y017810D02*
X013760Y017760D01*
X013760Y016820D02*
X013760Y016760D01*
X013760Y015760D02*
X013760Y015740D01*
M02*
