%
M48
M72
T01C0.0320
T02C0.0354
T03C0.0360
T04C0.0394
T05C0.0400
T06C0.0470
T07C0.1102
T08C0.1181
%
T01
X9260Y6260
X8510Y6760
X9260Y7260
X12260Y4260
X15260Y4260
X31010Y7260
X31760Y7760
X31760Y6760
X34260Y13760
X37260Y13760
T02
X35713Y11169
X38075Y10382
X33351Y10382
X33351Y5658
X38075Y5658
X22760Y9061
X21760Y9061
X18760Y9061
X17760Y9061
X17760Y1659
X18760Y1659
X21760Y1659
X22760Y1659
T03
X25260Y10510
X26260Y10510
X27260Y10510
X13760Y12010
X12760Y12010
X11760Y12010
T04
X5260Y23260
X4260Y23260
X3260Y23260
X2260Y23260
T05
X2710Y16940
X11760Y16760
X11760Y15760
X13760Y15760
X13760Y16760
X13760Y17760
X13760Y18760
X13760Y19760
X13760Y20760
X13760Y21760
X13760Y22760
X11760Y22760
X11760Y21760
X11760Y20760
X11760Y19760
X11760Y18760
X11760Y17760
X17260Y17760
X17260Y18760
X17260Y19760
X17260Y20760
X17260Y21760
X17260Y22760
X17260Y16760
X17260Y15760
X26260Y15760
X26260Y16760
X26260Y17760
X26260Y18760
X26260Y19760
X26260Y20760
X26260Y21760
X26260Y22760
X29760Y22760
X29760Y21760
X29760Y20760
X29760Y19760
X29760Y18760
X29760Y17760
X29760Y16760
X29760Y15760
X32260Y15760
X32260Y16760
X32260Y17760
X32260Y18760
X32260Y19760
X32260Y20760
X32260Y21760
X32260Y22760
X11760Y6260
X12260Y1660
X13260Y1660
X1760Y4760
X27260Y5760
T06
X34260Y2010
X36260Y2010
T07
X1260Y1260
X5760Y13760
X1260Y26760
X29010Y13760
X38260Y1260
X38260Y26760
T08
X4760Y19760
M30
